<?xml version="1.0" standalone="no"?><!DOCTYPE svg PUBLIC "-//W3C//DTD SVG 1.1//EN" "http://www.w3.org/Graphics/SVG/1.1/DTD/svg11.dtd"><svg t="1576496396501" class="icon" viewBox="0 0 1024 1024" version="1.1" xmlns="http://www.w3.org/2000/svg" p-id="34256" xmlns:xlink="http://www.w3.org/1999/xlink" width="200" height="200"><defs><style type="text/css"></style></defs><path d="M877.348571 696.466286a23.04 23.04 0 0 1 22.381715-40.228572l29.476571 16.310857c37.741714 20.992 50.102857 67.291429 26.477714 102.619429a76.434286 76.434286 0 0 1-26.477714 24.210286L550.765714 1009.590857c-24.722286 13.750857-55.515429 13.750857-80.237714 0L92.16 799.451429C54.491429 778.386286 42.130286 732.16 65.828571 696.832c6.802286-10.093714 15.872-18.358857 26.477715-24.210286l29.842285-16.603428a23.04 23.04 0 0 1 22.381715 40.228571l-29.842286 16.603429a30.354286 30.354286 0 0 0-10.532571 9.508571c-8.338286 12.580571-4.096 28.598857 10.532571 36.717714l378.368 210.285715a37.229714 37.229714 0 0 0 35.474286 0l378.368-210.285715a30.354286 30.354286 0 0 0 10.532571-9.508571c8.338286-12.434286 4.096-28.525714-10.532571-36.717714l-29.476572-16.310857z m-2.413714-219.209143a23.04 23.04 0 0 1 22.381714-40.228572l31.890286 17.700572c37.741714 20.992 50.102857 67.291429 26.477714 102.546286a76.434286 76.434286 0 0 1-26.477714 24.210285L550.765714 791.771429c-24.722286 13.750857-55.515429 13.750857-80.237714 0L92.16 581.485714C54.491429 560.493714 42.130286 514.194286 65.828571 478.939429c6.802286-10.093714 15.872-18.358857 26.477715-24.210286l32.036571-17.773714a23.04 23.04 0 0 1 22.381714 40.228571l-32.036571 17.846857a30.354286 30.354286 0 0 0-10.532571 9.508572c-8.338286 12.434286-4.096 28.525714 10.532571 36.717714l378.368 210.212571a37.156571 37.156571 0 0 0 35.474286 0L906.825143 541.257143a30.354286 30.354286 0 0 0 10.532571-9.508572c8.338286-12.580571 4.096-28.598857-10.532571-36.717714l-31.890286-17.773714zM524.434286 62.171429a28.16 28.16 0 0 0-27.355429 0L117.321143 273.115429a28.16 28.16 0 0 0 0 49.225142l379.757714 211.017143a28.16 28.16 0 0 0 27.355429 0l379.684571-211.017143a28.16 28.16 0 0 0 0-49.225142L524.434286 62.098286z m402.066285 170.715428a74.24 74.24 0 0 1 0 129.828572L546.816 573.586286c-22.454857 12.434286-49.737143 12.434286-72.192 0L95.085714 362.642286a74.24 74.24 0 0 1-0.073143-129.828572L474.697143 21.796571c22.381714-12.434286 49.664-12.434286 72.118857 0l379.684571 211.017143z" fill="#84C225" p-id="34257"></path></svg>