<?xml version="1.0" standalone="no"?><!DOCTYPE svg PUBLIC "-//W3C//DTD SVG 1.1//EN" "http://www.w3.org/Graphics/SVG/1.1/DTD/svg11.dtd"><svg t="1576495789132" class="icon" viewBox="0 0 1024 1024" version="1.1" xmlns="http://www.w3.org/2000/svg" p-id="27012" xmlns:xlink="http://www.w3.org/1999/xlink" width="200" height="200"><defs><style type="text/css"></style></defs><path d="M341.352609 542.117647v-80.313725h321.254902v80.313725H341.352609z m-189.399844 36.663216C172.834334 659.215059 452.085158 929.02902 505.192609 929.02902c50.396863 0 329.145725-273.227294 353.761882-352.155608 15.74149-50.43702 16.745412-161.711686 1.66651-329.627608a493.347137 493.347137 0 0 1-173.69851-43.911529c-30.378667-13.934431-58.428235-32.145569-90.473412-57.062902-7.589647-5.88298-52.665725-42.566275-63.427764-50.416942-8.473098-6.184157-15.299765-10.440784-20.781177-13.05098-3.915294-1.867294-6.284549-2.509804-7.047529-2.509804-5.822745 1.124392-15.09898 6.90698-31.121569 20.379608-5.461333 4.577882-26.965333 23.29098-28.370824 24.495686a705.576157 705.576157 0 0 1-36.141176 29.354667 442.990431 442.990431 0 0 1-80.213333 48.710274c-61.319529 28.631843-121.21349 44.052078-179.440942 45.979608-13.251765 163.518745-12.247843 274.391843 2.048 329.547294zM116.092687 168.297412c56.199529 4.216471 115.812392-8.192 179.280314-37.827765a363.459765 363.459765 0 0 0 65.837176-40.056471 629.157647 629.157647 0 0 0 32.12549-26.142117c0.923608-0.803137 22.989804-19.978039 29.093648-25.098039C448.230099 17.488314 466.441236 6.103843 488.728295 1.646431c5.421176-1.084235 10.922667-1.646431 16.444235-1.646431 24.877176 0 47.184314 10.601412 75.13349 30.960941 12.830118 9.336471 59.331765 47.184314 65.41553 51.922824 27.587765 21.443765 50.81851 36.542745 74.691765 47.48549 54.91451 25.21851 113.724235 37.807686 176.850823 37.807686h36.402196l3.573961 36.241569c19.476078 198.254431 19.476078 328.683922-1.626353 396.388392-34.05302 109.166431-339.526275 408.555922-430.441412 408.555922-93.806431 0-401.689098-297.461961-430.983529-410.423216-18.411922-71.017412-18.411922-201.145725-1.124392-394.179765l3.533804-39.413961 39.474196 2.95153z" fill="#2589FF" p-id="27013"></path><path d="M461.823197 341.333333h80.313725v341.333334h-80.313725z" fill="#9ECAFE" p-id="27014"></path></svg>