<?xml version="1.0" standalone="no"?><!DOCTYPE svg PUBLIC "-//W3C//DTD SVG 1.1//EN" "http://www.w3.org/Graphics/SVG/1.1/DTD/svg11.dtd"><svg t="1576494465222" class="icon" viewBox="0 0 1024 1024" version="1.1" xmlns="http://www.w3.org/2000/svg" p-id="11130" xmlns:xlink="http://www.w3.org/1999/xlink" width="200" height="200"><defs><style type="text/css"></style></defs><path d="M935.41888 97.201231L604.903188 433.388308a32.846769 32.846769 0 0 1-47.025231-0.157539 33.870769 33.870769 0 0 1 0-47.812923L888.472418 49.388308a32.689231 32.689231 0 0 1 47.025231 0 34.107077 34.107077 0 0 1 0 47.812923zM244.927803 443.234462a32.452923 32.452923 0 0 1-23.473231-9.767385 34.500923 34.500923 0 0 1-9.767384-24.024615c0-18.747077 14.808615-33.870769 33.240615-33.87077h199.443692c18.353231 0 33.240615 15.123692 33.240616 33.87077 0 18.668308-14.887385 33.792-33.240616 33.792H244.927803z m432.049231 169.117538c0 18.747077-14.808615 33.870769-33.083077 33.870769H244.927803a32.452923 32.452923 0 0 1-23.473231-9.846154 34.500923 34.500923 0 0 1-9.767384-24.024615c0-18.747077 14.808615-33.870769 33.240615-33.870769h398.808615c18.432 0 33.240615 15.123692 33.240616 33.870769z m-33.240616-439.532308H178.446572a33.713231 33.713231 0 0 0-33.240615 33.87077v676.470153c0 18.747077 14.966154 33.870769 33.240615 33.87077H776.620111a32.452923 32.452923 0 0 0 23.473231-9.846154c6.222769-6.301538 9.767385-14.966154 9.767384-24.024616V341.779692c0-18.747077 14.887385-33.870769 33.240616-33.870769 18.432 0 33.240615 15.123692 33.240615 33.870769v541.144616A100.667077 100.667077 0 0 1 776.935188 984.615385H178.446572A100.667077 100.667077 0 0 1 78.724726 883.160615V206.611692c0-55.926154 44.662154-101.454769 99.721846-101.454769h465.289846c18.432 0 33.240615 15.123692 33.240616 33.870769s-14.808615 33.870769-33.240616 33.87077z" fill="#0095FF" p-id="11131"></path></svg>