<?xml version="1.0" standalone="no"?><!DOCTYPE svg PUBLIC "-//W3C//DTD SVG 1.1//EN" "http://www.w3.org/Graphics/SVG/1.1/DTD/svg11.dtd"><svg t="1576830232530" class="icon" viewBox="0 0 1024 1024" version="1.1" xmlns="http://www.w3.org/2000/svg" p-id="5680" xmlns:xlink="http://www.w3.org/1999/xlink" width="200" height="200"><defs><style type="text/css"></style></defs><path d="M511.829333 513.219048m-488.838095 0a488.838095 488.838095 0 1 0 977.676191 0 488.838095 488.838095 0 1 0-977.676191 0Z" fill="#DC1284" p-id="5681"></path><path d="M510.610286 465.67619c-6.095238 0-12.190476-2.438095-17.066667-7.314285l-223.085714-218.209524c-9.752381-9.752381-9.752381-24.380952 0-34.133333 9.752381-9.752381 24.380952-9.752381 34.133333 0l206.019048 201.142857 199.923809-201.142857c9.752381-9.752381 24.380952-9.752381 34.133334 0 9.752381 9.752381 9.752381 24.380952 0 34.133333l-216.990477 218.209524c-3.657143 4.87619-10.971429 7.314286-17.066666 7.314285zM727.600762 537.6h-440.076191c-13.409524 0-24.380952-10.971429-24.380952-24.380952s10.971429-24.380952 24.380952-24.380953h440.076191c13.409524 0 24.380952 10.971429 24.380952 24.380953s-10.971429 24.380952-24.380952 24.380952zM727.600762 739.961905h-440.076191c-13.409524 0-24.380952-10.971429-24.380952-24.380953s10.971429-24.380952 24.380952-24.380952h440.076191c13.409524 0 24.380952 10.971429 24.380952 24.380952s-10.971429 24.380952-24.380952 24.380953z" fill="#FFFFFF" p-id="5682"></path><path d="M510.610286 909.409524c-13.409524 0-24.380952-10.971429-24.380953-24.380953V441.295238c0-13.409524 10.971429-24.380952 24.380953-24.380952s24.380952 10.971429 24.380952 24.380952v443.733333c0 13.409524-10.971429 24.380952-24.380952 24.380953z" fill="#FFFFFF" p-id="5683"></path></svg>