<?xml version="1.0" standalone="no"?><!DOCTYPE svg PUBLIC "-//W3C//DTD SVG 1.1//EN" "http://www.w3.org/Graphics/SVG/1.1/DTD/svg11.dtd"><svg t="1576494432344" class="icon" viewBox="0 0 1024 1024" version="1.1" xmlns="http://www.w3.org/2000/svg" p-id="10121" xmlns:xlink="http://www.w3.org/1999/xlink" width="200" height="200"><defs><style type="text/css"></style></defs><path d="M0 64h1024v832H0V64z m64 64v704h896V128H64z m176.64 448L192 704H448l-47.616-128H240.64z m24.32-64h111.616l-47.552-128h-15.552l-48.576 128zM512 704H128l144.064-384h98.624L512 704z m64-384h128a192 192 0 0 1 0 384H576V320z m64 320h64a128 128 0 1 0 0-256h-64v256z" fill="#0C6CFF" p-id="10122"></path></svg>