<?xml version="1.0" standalone="no"?><!DOCTYPE svg PUBLIC "-//W3C//DTD SVG 1.1//EN" "http://www.w3.org/Graphics/SVG/1.1/DTD/svg11.dtd"><svg t="1576495784421" class="icon" viewBox="0 0 1024 1024" version="1.1" xmlns="http://www.w3.org/2000/svg" p-id="26901" xmlns:xlink="http://www.w3.org/1999/xlink" width="200" height="200"><defs><style type="text/css"></style></defs><path d="M644.43 8.255H382.47C175.783 8.255 8.225 175.778 8.225 382.429v261.925c0 206.65 167.559 374.174 374.246 374.174H644.43c206.706 0 374.246-167.523 374.246-374.174V382.429c0-206.651-167.54-374.174-374.246-374.174zM448.751 656.552l-23.719 15.675-7.163-5.483-6.013-3.359-10.367-6.832c-49.762-32.893-96.273-72.974-134.452-115.858-16.425-18.592-31.878-39.46-42.067-53.542-48.104-66.276-55.576-147.627-19.058-207.27 25.157-41.25 65.789-66.386 111.417-68.95 52.216-3.006 87.519 18.017 108.057 36.563l0.663-0.862c19.432-17.575 54.161-38.686 106.863-35.702 45.648 2.564 86.28 27.721 111.461 68.994 28.694 46.865 31.037 106.2 5.969 163.167-12.247-5.924-27.788-9.175-45.628-10.258 22.04-44.721 22.637-93.068 0.817-128.703-17.266-28.275-44.655-45.473-75.185-47.22-46.355-2.718-72.443 19.212-86.081 37.448l-14.701 19.632-1.747 5.947-21.73-25.422c-13.729-18.372-39.903-40.28-86.193-37.604-30.507 1.726-57.874 18.924-75.117 47.176-26.75 43.594-20.03 104.785 17.043 155.894 9.571 13.242 24.029 32.829 39.238 50.005 34.708 39.018 77.086 75.693 122.604 106.176l0.839-0.597 1.504 0.974c18.458-12.313 36.564-25.888 54.072-40.366 2.034 16.071 5.041 33.424 12.204 49.076-14.681 11.472-28.276 21.221-43.53 31.301z m381.47 2.675c-8.423 11.65-19.652 26.771-31.744 40.39-28.674 32.253-63.779 62.495-101.492 87.453l-18.282 12.113-5.79-4.465-4.467-2.455-7.848-5.193c-37.537-24.826-72.643-55.067-101.491-87.453-12.181-13.773-23.366-28.828-31.744-40.411-36.432-50.204-42.091-111.836-14.392-157.023 19.1-31.28 49.916-50.357 84.534-52.303 39.262-2.209 65.745 13.309 81.375 27.235l0.155-0.155c14.722-13.331 41.029-29.357 81.042-27.08 34.64 1.946 65.479 21.023 84.579 52.348 27.676 45.163 21.997 106.795-14.435 156.999z" fill="#FF6792" p-id="26902"></path></svg>