<?xml version="1.0" standalone="no"?><!DOCTYPE svg PUBLIC "-//W3C//DTD SVG 1.1//EN" "http://www.w3.org/Graphics/SVG/1.1/DTD/svg11.dtd"><svg t="1576811380001" class="icon" viewBox="0 0 1024 1024" version="1.1" xmlns="http://www.w3.org/2000/svg" p-id="3382" xmlns:xlink="http://www.w3.org/1999/xlink" width="200" height="200"><defs><style type="text/css"></style></defs><path d="M484.5 609.65l125.66 76.73 41.88-279L484.5 609.65z m0 0" fill="#FF6633" p-id="3383"></path><path d="M861.49 163.25c-195.47-188.33-502.65-188.33-698.12 0-188.49 195.3-188.49 502.21 0 697.51 188.49 188.33 502.65 188.33 691.14 0 195.47-195.31 195.47-502.21 6.98-697.51zM666.02 811.93L442.62 679.4v153.45h-76.8v-195.3l223.4-272.03L303 505.02l55.85 27.9-48.87 62.78-181.51-90.68 628.31-313.88-90.76 620.79z m0 0" fill="#FF6633" p-id="3384"></path></svg>