<?xml version="1.0" standalone="no"?><!DOCTYPE svg PUBLIC "-//W3C//DTD SVG 1.1//EN" "http://www.w3.org/Graphics/SVG/1.1/DTD/svg11.dtd"><svg t="1576494455844" class="icon" viewBox="0 0 1024 1024" version="1.1" xmlns="http://www.w3.org/2000/svg" p-id="10788" xmlns:xlink="http://www.w3.org/1999/xlink" width="200" height="200"><defs><style type="text/css"></style></defs><path d="M495.616 970.24c-10.752 0-21.504-5.12-28.16-13.312l-81.408-97.792c-76.8 54.784-79.36 55.808-85.504 57.856-19.968 5.632-40.448-4.096-46.592-22.528-5.632-16.384 1.536-34.816 17.408-43.008 6.656-4.096 33.28-23.552 59.392-41.984 13.824-9.728 27.648-19.456 39.424-28.16 15.36-11.264 37.888-8.192 50.176 6.656l81.408 97.28 309.248-222.208-1.024-1.536c-6.656-9.728-7.68-21.504-3.072-31.232 4.608-10.752 14.848-17.92 26.624-18.944l73.728-7.68c11.264-1.536 22.528 3.072 29.184 11.776 6.656 9.728 8.192 21.504 3.584 31.744l-30.208 66.048c-4.096 9.728-14.336 16.896-26.112 18.944h-3.584c-10.24 0-19.456-4.096-25.6-11.776L517.12 963.072c-5.632 4.608-13.312 7.168-21.504 7.168zM389.12 831.488l93.696 112.128c3.072 3.584 8.192 6.144 12.8 6.144 2.56 0 6.656-0.512 9.728-3.072l354.304-254.976 11.264 15.36c2.048 2.56 5.632 4.608 9.728 4.608h1.024c4.096-0.512 7.68-3.072 9.216-6.656l30.208-66.048c2.048-4.608 0-8.704-1.536-11.264-1.536-2.56-5.632-4.096-9.728-3.584h-0.512l-74.24 7.68c-4.096 0.512-8.192 3.072-9.728 6.656-1.536 3.584-1.024 7.68 1.024 11.264l12.8 17.92-342.016 245.76-92.672-112.64c-5.12-6.656-15.36-7.68-22.528-3.072-12.288 8.704-26.112 18.432-39.424 28.16-28.16 19.968-54.784 38.912-60.416 43.008l-1.024 0.512c-6.656 3.584-10.24 11.264-7.68 18.432 3.072 8.192 12.288 12.288 21.504 9.728 3.072-1.024 11.776-6.144 87.552-60.416l6.656-5.632z m-172.544-10.24c-10.24 0-19.456-3.584-26.112-10.752C103.936 726.528 56.32 615.424 56.32 497.664c0-243.712 205.312-442.368 457.216-442.368 251.904 0 457.728 198.656 458.24 442.368 0 19.968-16.384 35.84-36.864 35.84s-36.864-15.872-36.864-35.84c0-204.288-172.032-370.688-384-370.688s-384 166.4-384 370.688c0 99.328 39.936 192.512 112.64 262.144 14.336 14.336 14.336 36.864 0 51.2-6.656 6.656-15.872 10.24-26.112 10.24z m296.96-745.472c-240.64 0-436.736 189.44-436.736 421.888 0 112.128 45.568 218.112 128 298.496 3.072 3.072 7.168 4.608 11.776 4.608 4.608 0 8.704-1.536 11.776-4.608 6.144-6.144 6.144-15.872 0-22.016-76.288-73.216-118.784-171.52-118.784-276.48 0-215.552 181.248-391.168 404.48-391.168s404.48 175.616 404.48 391.168c0 8.704 7.168 15.36 16.384 15.36 8.704 0 16.384-7.168 16.384-15.36-0.512-232.448-197.12-421.888-437.76-421.888z" fill="#0074FF" p-id="10789"></path><path d="M906.24 613.888l-74.24 7.68c-7.68 0.512-14.848 5.632-17.92 12.8-3.072 6.656-2.048 14.848 2.048 20.992l7.168 9.728-325.632 233.984-87.552-104.96c-8.704-10.752-25.088-12.8-36.352-4.608-36.864 26.112-91.136 65.024-99.84 70.656-11.264 5.632-16.896 18.944-12.8 30.72 4.608 13.312 19.456 20.48 33.792 16.384 4.608-1.536 7.68-2.56 90.624-61.952l87.552 104.96c5.12 6.144 12.8 9.728 20.48 9.728 5.632 0 11.264-1.536 15.872-5.12l345.6-248.832 5.12 7.168c4.096 5.632 10.752 8.704 17.92 8.704h2.048c7.68-1.024 14.848-5.632 17.92-12.8l30.208-66.048c3.072-7.168 2.048-14.848-2.56-21.504-4.096-5.632-11.776-8.704-19.456-7.68zM511.488 65.536c-246.272 0-446.976 193.536-446.976 432.128 0 115.2 46.592 223.744 131.072 305.664 5.12 5.12 11.776 7.68 18.944 7.68s13.824-2.56 18.944-7.68c10.24-10.24 10.24-26.112 0-36.352C158.72 695.296 117.76 599.552 117.76 497.664c0-209.92 176.64-380.928 394.24-380.928s394.24 171.008 394.24 380.928c0 14.336 11.776 25.6 26.624 25.6s26.624-11.776 26.624-25.6c-0.512-238.592-201.216-432.128-448-432.128z" fill="#0074FF" p-id="10790"></path><path d="M702.464 288.256c5.632-11.264 8.704-18.432 8.704-22.016-2.048-14.848-10.752-23.04-25.6-25.088-15.36 0-26.624 6.656-34.304 19.456l-132.096 190.976-132.096-190.976c-7.68-12.8-18.944-19.456-34.304-19.456-15.36 2.048-24.064 10.24-25.6 25.088 2.048 7.68 4.608 14.848 8.704 22.016 2.048 2.048 3.072 3.584 3.072 5.632l117.76 174.592H387.072c-20.992 0-31.744 8.192-31.744 25.088 2.048 12.8 12.288 20.48 31.744 22.016h100.352v49.664H387.072c-20.992 0-31.744 8.192-31.744 25.088 2.048 12.8 12.288 20.48 31.744 22.016h100.352v110.592c0 18.432 10.24 27.648 31.744 27.648 20.992 0 31.232-9.216 31.232-27.648v-110.592h100.352c18.944-2.048 29.696-9.216 31.744-22.016 0-16.896-10.752-25.088-31.744-25.088h-100.352v-49.664h100.352c18.944-2.048 29.696-9.216 31.744-22.016 0-16.896-10.752-25.088-31.744-25.088h-68.608l117.76-174.592c0-2.048 0.512-3.584 2.56-5.632z" fill="#FF9A26" p-id="10791"></path></svg>