<?xml version="1.0" standalone="no"?><!DOCTYPE svg PUBLIC "-//W3C//DTD SVG 1.1//EN" "http://www.w3.org/Graphics/SVG/1.1/DTD/svg11.dtd"><svg t="1576488065636" class="icon" viewBox="0 0 1024 1024" version="1.1" xmlns="http://www.w3.org/2000/svg" p-id="959" xmlns:xlink="http://www.w3.org/1999/xlink" width="200" height="200"><defs><style type="text/css"></style></defs><path d="M461.824 907.264H321.536c-29.696 0-59.392-13.824-78.848-37.376-19.968-21.504-29.696-51.2-29.696-80.896v-211.456h-25.6c-35.84 0-57.344-21.504-65.024-41.472-9.728-21.504-7.68-55.296 25.6-87.04l286.72-296.448c19.968-23.552 49.664-35.84 78.848-35.84s57.344 11.776 78.848 33.792l286.72 296.448c35.84 35.84 31.744 69.12 25.6 87.04-7.68 19.968-27.648 41.472-65.024 41.472h-23.552v211.456c0 29.696-9.728 59.392-29.696 82.944s-49.664 37.376-78.848 37.376h-140.288V622.592H461.824v284.672z m51.2-753.152c-19.968 0-39.424 7.68-53.248 21.504l-286.72 296.448c-25.6 25.6-17.92 43.52-17.92 47.616 2.048 6.144 9.728 17.92 31.744 17.92h61.44v247.296c0 39.424 29.696 82.944 71.168 82.944h102.912V634.88c0-13.824 0-27.648 9.728-39.424 9.728-9.728 21.504-9.728 31.744-9.728h96.768c9.728 0 21.504 2.048 31.744 9.728 9.728 9.728 9.728 25.6 9.728 39.424v233.472h102.912c43.52 0 71.168-43.52 71.168-82.944v-245.248h61.44c23.552 0 29.696-13.824 31.744-17.92v-4.096s7.68-19.968-17.92-45.568l-284.672-296.448c-15.872-14.336-33.792-22.016-53.76-22.016z" fill="#0B69FF" p-id="960"></path></svg>