<?xml version="1.0" standalone="no"?><!DOCTYPE svg PUBLIC "-//W3C//DTD SVG 1.1//EN" "http://www.w3.org/Graphics/SVG/1.1/DTD/svg11.dtd"><svg t="1582074363510" class="icon" viewBox="0 0 1024 1024" version="1.1" xmlns="http://www.w3.org/2000/svg" p-id="3629" xmlns:xlink="http://www.w3.org/1999/xlink" width="200" height="200"><defs><style type="text/css"></style></defs><path d="M499.214624 1023.979061c285.99322 2.553511 520.916222-229.81598 520.916221-513.255689C1022.684356 229.837174 795.421887 2.574705 511.982178 0.021194 231.09598-2.532317 3.833511 224.730152 1.28 508.169861-1.273511 791.60957 223.435447 1023.979061 499.214624 1023.979061z m7.660532-863.086681c48.516707 0 84.265859 35.749152 84.26586 84.26586s-35.749152 84.265859-84.26586 84.265859c-45.963196 0-84.265859-38.302663-84.265859-84.265859 2.553511-45.963196 38.302663-84.265859 84.265859-84.26586z m-227.262469 168.531719c76.605327-7.660533 142.99661 12.767554 204.280871 58.73075 12.767554 10.214044 20.428087 12.767554 33.195642 0 71.498305-56.17724 155.764164-79.158838 245.137045-61.284261 137.889588 28.08862 211.941404 176.192251 153.210654 303.867796-63.837772 135.336077-176.192251 214.494915-324.295883 242.583535-10.214044 2.553511-22.981598 2.553511-33.195642 5.107021-5.107022 0-12.767554 0-20.428087-2.55351 7.660533-2.553511 17.874576-5.107022 25.535109-7.660533 94.479903-33.195642 171.08523-91.926392 222.155447-178.745762 33.195642-53.623729 45.963196-109.800968 17.874577-171.08523-30.642131-71.498305-130.229055-99.586925-194.066828-56.17724-33.195642 22.981598-40.856174 58.73075-43.409685 97.033414-2.553511 40.856174 7.660533 79.158838 17.874576 120.015012 2.553511 5.107022 2.553511 12.767554 5.107022 20.428087-30.642131-10.214044-51.070218-30.642131-74.051816-51.070218-28.08862 35.749152-56.17724 68.944794-109.800968 74.051816 10.214044-20.428087 20.428087-40.856174 28.088619-61.284261 15.321065-40.856174 25.535109-81.712348 10.214044-125.122034-17.874576-56.17724-71.498305-89.372881-137.889588-79.158837-61.284261 7.660533-102.140436 53.623729-104.693947 112.354479-5.107022 84.265859 30.642131 153.210653 86.819371 211.941404 33.195642 35.749152 68.944794 63.837772 109.800968 89.372881-43.409685-10.214044-81.712348-28.08862-117.461501-53.623729-76.605327-53.623729-142.99661-117.461501-178.745762-206.834382-56.17724-160.871186 63.837772-268.118643 178.745762-280.886198z" fill="#007FFE" p-id="3630"></path></svg>