<?xml version="1.0" standalone="no"?><!DOCTYPE svg PUBLIC "-//W3C//DTD SVG 1.1//EN" "http://www.w3.org/Graphics/SVG/1.1/DTD/svg11.dtd"><svg t="1576716758310" class="icon" viewBox="0 0 1024 1024" version="1.1" xmlns="http://www.w3.org/2000/svg" p-id="3820" xmlns:xlink="http://www.w3.org/1999/xlink" width="200" height="200"><defs><style type="text/css"></style></defs><path d="M512 69.963c248.05 0 445.217 197.167 445.217 445.217S760.05 960.398 512 960.398 66.783 763.23 66.783 515.18 263.95 69.963 512 69.963m0-63.603C232.15 6.36 3.18 235.33 3.18 515.18 3.18 795.031 232.15 1024 512 1024s508.82-228.969 508.82-508.82C1020.82 235.33 791.85 6.36 512 6.36z" fill="#06C261" p-id="3821"></path><path d="M512 432.497c-38.161 0-63.602 25.44-63.602 57.242v273.49c0 31.802 25.44 57.243 63.602 57.243 38.161 0 63.602-25.44 63.602-57.242V489.74c0-31.802-25.44-57.243-63.602-57.243z m0-95.404c38.161 0 63.602-25.44 63.602-63.602 0-38.162-25.44-63.603-63.602-63.603-38.161 0-63.602 25.441-63.602 63.603 0 38.161 25.44 63.602 63.602 63.602z" fill="#06C261" p-id="3822"></path></svg>