<?xml version="1.0" standalone="no"?><!DOCTYPE svg PUBLIC "-//W3C//DTD SVG 1.1//EN" "http://www.w3.org/Graphics/SVG/1.1/DTD/svg11.dtd"><svg t="1576495777171" class="icon" viewBox="0 0 1024 1024" version="1.1" xmlns="http://www.w3.org/2000/svg" p-id="26790" xmlns:xlink="http://www.w3.org/1999/xlink" width="200" height="200"><defs><style type="text/css"></style></defs><path d="M605.2736 442.181818c-37.236364 0-72.145455 18.618182-93.090909 46.545455-20.945455-27.927273-55.854545-46.545455-93.090909-46.545455-65.163636 0-116.363636 51.2-116.363637 116.363637 0 158.254545 176.872727 256 209.454546 256s209.454545-107.054545 209.454545-256c0-65.163636-51.2-116.363636-116.363636-116.363637z m-93.090909 325.818182c-25.6 0-162.909091-90.763636-162.909091-209.454545 0-25.6 25.6-69.818182 69.818182-69.818182 39.563636 0 76.8 25.6 93.090909 46.545454 16.290909-20.945455 44.218182-46.545455 93.090909-46.545454s69.818182 34.909091 69.818182 69.818182c0 111.709091-137.309091 209.454545-162.909091 209.454545z m488.727273-314.181818L572.691782 23.272727c-32.581818-32.581818-86.109091-32.581818-116.363637 0L23.455418 453.818182c-23.272727 23.272727-30.254545 58.181818-16.290909 88.436363C21.128145 570.181818 58.364509 581.818182 93.2736 581.818182h46.545455v325.818182c0 62.836364 30.254545 116.363636 93.090909 116.363636h553.890909c62.836364 0 97.745455-53.527273 97.745454-116.363636V581.818182h46.545455c34.909091 0 72.145455-6.981818 86.109091-39.563637 13.963636-30.254545 6.981818-65.163636-16.290909-88.436363z m-32.581819 69.818182c-2.327273 4.654545-6.981818 18.618182-27.927272 18.618181L861.2736 535.272727c-16.290909 0-23.272727 6.981818-23.272727 23.272728v349.090909c0 30.254545-13.963636 69.818182-46.545455 69.818181H232.909964c-30.254545 0-48.872727-37.236364-46.545455-69.818181V558.545455c0-16.290909-6.981818-23.272727-23.272727-23.272728H93.2736c-18.618182 0-34.909091-9.309091-37.236364-16.290909-2.327273-4.654545-4.654545-18.618182 4.654546-32.581818L493.564509 62.836364c11.636364-11.636364 30.254545-11.636364 39.563636 0l428.218182 428.218181c16.290909 13.963636 9.309091 25.6 6.981818 32.581819z" fill="#FF0036" p-id="26791"></path></svg>