<svg 
 xmlns="http://www.w3.org/2000/svg"
 xmlns:xlink="http://www.w3.org/1999/xlink"
 width="17px" height="17px">
<path fill-rule="evenodd"  fill="rgb(128, 129, 130)"
 d="M14.904,17.000 L2.097,17.000 C0.950,17.000 -0.000,16.070 -0.000,14.948 L-0.000,5.813 C-0.000,4.690 0.950,3.761 2.097,3.761 L14.937,3.761 C16.084,3.761 17.032,4.690 17.001,5.813 L17.001,14.948 C17.001,16.070 16.051,17.000 14.904,17.000 ZM16.051,5.810 C16.051,5.202 15.559,4.721 14.937,4.721 L2.097,4.721 C1.475,4.721 0.983,5.202 0.983,5.810 L0.983,14.946 C0.983,15.554 1.475,16.035 2.097,16.035 L14.937,16.035 C15.559,16.035 16.051,15.554 16.051,14.946 L16.051,5.810 ZM11.331,13.267 L9.136,13.267 L9.136,7.904 L11.384,7.904 C12.082,7.904 12.632,8.151 13.047,8.635 C13.455,9.116 13.666,9.769 13.666,10.588 C13.673,11.400 13.462,12.053 13.040,12.537 C12.617,13.020 12.054,13.267 11.331,13.267 ZM12.485,9.053 C12.212,8.700 11.818,8.517 11.310,8.517 L9.882,8.517 L9.882,12.638 L11.238,12.638 C11.770,12.638 12.178,12.462 12.469,12.100 L12.469,12.100 C12.756,11.741 12.898,11.236 12.900,10.581 C12.900,9.919 12.759,9.412 12.485,9.053 ZM7.070,11.713 L4.882,11.713 L4.309,13.269 L3.541,13.269 L5.609,7.907 L6.456,7.907 L8.424,13.269 L7.627,13.269 L7.070,11.713 ZM6.003,8.696 L5.117,11.067 L6.842,11.067 L6.003,8.696 ZM15.132,3.340 L1.586,3.340 C1.422,3.340 1.283,3.225 1.283,3.077 C1.283,2.936 1.415,2.814 1.586,2.814 L15.000,1.596 C15.161,1.570 15.307,1.680 15.305,1.821 L15.305,3.190 C15.305,3.275 15.225,3.340 15.132,3.340 ZM14.438,1.218 L1.898,2.446 C1.734,2.446 1.595,2.331 1.595,2.183 C1.595,2.042 1.727,1.920 1.898,1.920 L14.364,0.004 C14.486,-0.017 14.604,0.065 14.602,0.175 L14.597,1.018 C14.626,1.112 14.549,1.206 14.438,1.218 Z"/>
</svg>