<svg 
 xmlns="http://www.w3.org/2000/svg"
 xmlns:xlink="http://www.w3.org/1999/xlink"
 width="16px" height="16px">
<path fill-rule="evenodd"  fill="rgb(128, 129, 130)"
 d="M0.733,16.000 C0.482,16.000 0.277,15.784 0.277,15.518 C0.277,15.252 0.482,15.035 0.733,15.035 L1.864,15.035 L1.864,6.718 L0.413,6.718 C0.184,6.718 0.060,6.557 0.023,6.419 C-0.024,6.282 -0.012,6.072 0.169,5.922 L7.756,0.082 C7.826,0.029 7.913,-0.000 8.000,-0.000 C8.087,-0.000 8.174,0.029 8.244,0.083 L15.831,5.923 C16.004,6.054 16.029,6.266 15.978,6.418 C15.929,6.563 15.800,6.718 15.587,6.718 L14.136,6.718 L14.136,15.035 L15.267,15.035 C15.518,15.035 15.723,15.252 15.723,15.518 C15.723,15.784 15.518,16.000 15.267,16.000 L0.733,16.000 ZM10.363,15.035 L13.143,15.035 L13.143,6.718 L10.363,6.718 L10.363,15.035 ZM6.610,15.035 L9.380,15.035 L9.380,6.718 L6.610,6.718 L6.610,15.035 ZM2.857,15.035 L5.627,15.035 L5.627,6.718 L2.857,6.718 L2.857,15.035 ZM1.937,5.743 L14.063,5.743 L8.000,1.078 L1.937,5.743 Z"/>
</svg>