<svg 
 xmlns="http://www.w3.org/2000/svg"
 xmlns:xlink="http://www.w3.org/1999/xlink"
 width="18px" height="16px">
<path fill-rule="evenodd"  fill="rgb(128, 129, 130)"
 d="M16.873,10.385 C16.196,9.392 15.270,8.640 14.199,8.213 C14.675,7.879 15.069,7.424 15.353,6.905 C15.683,6.301 15.866,5.605 15.866,4.900 C15.866,2.710 14.189,0.919 12.128,0.919 C11.835,0.919 11.597,1.160 11.597,1.457 C11.597,1.754 11.835,1.995 12.128,1.995 C13.603,1.995 14.803,3.295 14.803,4.900 C14.803,6.506 13.603,7.805 12.128,7.805 C11.835,7.805 11.597,8.046 11.597,8.343 C11.597,8.640 11.835,8.881 12.128,8.881 C14.785,8.881 16.937,11.211 16.937,14.078 C16.937,14.375 17.176,14.617 17.469,14.617 C17.762,14.617 18.000,14.375 18.000,14.078 C18.000,12.742 17.606,11.461 16.873,10.385 L16.873,10.385 ZM11.386,9.466 C10.827,9.067 10.223,8.751 9.582,8.529 C10.937,7.693 11.762,6.209 11.762,4.594 C11.762,2.060 9.728,0.000 7.228,0.000 C4.727,0.000 2.684,2.060 2.684,4.603 C2.684,5.466 2.922,6.311 3.371,7.035 C3.756,7.656 4.269,8.167 4.882,8.538 C4.232,8.761 3.618,9.085 3.050,9.494 C2.437,9.939 1.896,10.468 1.438,11.081 C0.494,12.352 -0.000,13.865 -0.000,15.461 C-0.000,15.758 0.238,15.999 0.531,15.999 C0.824,15.999 1.062,15.758 1.062,15.461 C1.062,13.800 1.704,12.241 2.858,11.062 C4.012,9.884 5.542,9.234 7.172,9.234 C7.228,9.234 7.282,9.234 7.337,9.225 L7.383,9.215 C8.968,9.243 10.452,9.893 11.579,11.044 C12.742,12.222 13.374,13.781 13.374,15.442 C13.374,15.739 13.612,15.981 13.905,15.981 C14.199,15.981 14.437,15.739 14.437,15.442 C14.437,13.846 13.942,12.334 12.999,11.062 C12.541,10.450 12.000,9.911 11.386,9.466 L11.386,9.466 ZM7.228,1.077 C9.142,1.077 10.708,2.654 10.708,4.603 C10.708,6.552 9.151,8.130 7.228,8.130 C5.304,8.130 3.746,6.552 3.746,4.603 C3.756,2.654 5.313,1.077 7.228,1.077 Z"/>
</svg>