<svg 
 xmlns="http://www.w3.org/2000/svg"
 xmlns:xlink="http://www.w3.org/1999/xlink"
 width="16px" height="16px">
<path fill-rule="evenodd"  fill="rgb(128, 129, 130)"
 d="M15.684,15.527 C15.443,15.819 15.069,16.000 14.708,16.000 L1.264,16.000 C0.899,16.000 0.525,15.822 0.287,15.535 L0.270,15.518 L0.260,15.503 C0.025,15.161 -0.052,14.786 0.037,14.416 C0.646,11.239 2.926,8.741 5.810,7.878 C4.625,7.125 3.828,5.793 3.828,4.265 C3.828,1.913 5.702,-0.000 8.005,-0.000 C10.308,-0.000 12.182,1.913 12.182,4.265 C12.182,6.549 10.410,8.405 8.198,8.510 L8.198,8.551 L7.824,8.551 C7.696,8.551 7.619,8.551 7.517,8.575 L7.494,8.581 L7.460,8.581 C4.276,8.819 1.614,11.304 0.984,14.627 C0.966,14.703 0.976,14.802 1.033,14.860 L1.054,14.882 L1.062,14.894 C1.099,14.945 1.172,14.976 1.254,14.976 L14.698,14.976 C14.786,14.976 14.860,14.931 14.895,14.887 C14.980,14.766 14.981,14.685 14.968,14.616 C14.569,12.444 13.284,10.590 11.442,9.530 L11.418,9.516 L11.405,9.502 C11.264,9.413 11.101,9.331 10.958,9.263 C10.934,9.251 10.915,9.242 10.895,9.233 C10.863,9.219 10.826,9.203 10.789,9.181 L10.695,9.137 C10.514,9.045 10.405,8.869 10.405,8.677 C10.405,8.397 10.628,8.170 10.901,8.170 C10.976,8.170 11.043,8.185 11.109,8.218 L11.218,8.264 C11.385,8.330 11.545,8.416 11.700,8.499 L11.730,8.516 C11.756,8.528 11.785,8.543 11.813,8.558 C11.852,8.579 11.889,8.599 11.927,8.615 L11.936,8.620 L11.946,8.625 C14.028,9.832 15.492,11.942 15.962,14.414 C16.062,14.794 15.966,15.178 15.684,15.527 ZM11.113,4.267 C11.113,2.517 9.719,1.093 8.005,1.093 C6.291,1.093 4.897,2.517 4.897,4.267 C4.897,6.021 6.291,7.449 8.005,7.449 C9.719,7.449 11.113,6.021 11.113,4.267 Z"/>
</svg>