<svg 
 xmlns="http://www.w3.org/2000/svg"
 xmlns:xlink="http://www.w3.org/1999/xlink"
 width="16px" height="16px">
<path fill-rule="evenodd"  fill="rgb(128, 129, 130)"
 d="M11.774,5.133 L4.226,5.133 C3.966,5.133 3.755,4.917 3.755,4.651 C3.755,4.384 3.966,4.168 4.226,4.168 L11.774,4.168 C12.034,4.168 12.245,4.384 12.245,4.651 C12.245,4.917 12.034,5.133 11.774,5.133 ZM11.774,8.128 L4.226,8.128 C3.966,8.128 3.755,7.912 3.755,7.646 C3.755,7.380 3.966,7.164 4.226,7.164 L11.774,7.164 C12.034,7.164 12.245,7.380 12.245,7.646 C12.245,7.912 12.034,8.128 11.774,8.128 ZM14.132,12.392 L12.529,12.392 C12.278,12.391 12.075,12.184 12.076,11.928 C12.076,11.673 12.279,11.466 12.528,11.466 L14.132,11.466 C14.663,11.466 15.095,11.024 15.095,10.482 L15.095,1.910 C15.095,1.367 14.663,0.926 14.132,0.926 L1.868,0.926 C1.337,0.926 0.905,1.367 0.905,1.910 L0.905,10.482 C0.905,11.024 1.337,11.466 1.868,11.466 L8.451,11.466 C8.697,11.466 8.934,11.566 9.105,11.742 L12.496,15.210 C12.673,15.390 12.673,15.684 12.496,15.865 C12.411,15.952 12.297,16.000 12.176,16.000 C12.055,16.000 11.941,15.952 11.856,15.865 L8.459,12.392 L1.868,12.392 C0.838,12.392 -0.000,11.535 -0.000,10.482 L-0.000,1.910 C0.001,0.858 0.839,0.001 1.868,-0.000 L14.132,-0.000 C15.162,-0.000 16.000,0.857 16.000,1.910 L16.000,10.482 C16.000,11.535 15.162,12.392 14.132,12.392 Z"/>
</svg>