<svg 
 xmlns="http://www.w3.org/2000/svg"
 xmlns:xlink="http://www.w3.org/1999/xlink"
 width="18px" height="18px">
<path fill-rule="evenodd"  fill="rgb(128, 129, 130)"
 d="M9.000,18.000 C6.513,18.000 4.368,17.116 2.626,15.372 C0.859,13.604 -0.000,11.517 -0.000,8.992 C-0.000,6.466 0.859,4.379 2.626,2.612 C3.985,1.179 5.782,0.292 7.813,0.057 C8.694,-0.016 9.096,-0.018 10.088,0.055 L10.090,0.055 C10.225,0.055 11.386,0.225 12.354,0.581 C12.713,0.712 12.897,1.110 12.765,1.469 C12.765,1.469 12.765,1.469 12.765,1.470 C12.633,1.830 12.235,2.015 11.877,1.881 C11.070,1.585 10.112,1.447 9.995,1.437 C9.063,1.370 8.739,1.371 7.949,1.436 C6.268,1.631 4.762,2.373 3.618,3.579 C2.111,5.087 1.384,6.853 1.384,8.992 C1.384,11.130 2.111,12.896 3.605,14.392 C5.099,15.887 6.863,16.614 9.000,16.614 C11.071,16.614 12.839,15.884 14.406,14.382 C15.886,12.834 16.615,11.065 16.615,8.992 C16.615,8.160 16.469,7.292 16.180,6.413 C16.124,6.294 16.076,6.176 16.031,6.062 C15.984,5.945 15.940,5.833 15.901,5.773 C15.884,5.749 15.870,5.723 15.857,5.697 C15.856,5.697 15.505,5.122 14.598,5.111 L14.587,5.111 C13.772,5.111 13.520,5.498 13.425,5.644 C13.419,5.653 13.413,5.661 13.407,5.669 L10.248,12.337 C9.929,13.030 9.504,13.392 8.989,13.409 C8.473,13.410 8.008,13.075 7.628,12.369 L4.494,5.610 C4.334,5.263 4.484,4.851 4.831,4.690 C5.177,4.529 5.589,4.679 5.750,5.025 C5.750,5.026 5.750,5.026 5.751,5.027 L8.866,11.749 C8.891,11.794 8.914,11.833 8.936,11.867 C8.957,11.829 8.976,11.790 8.994,11.750 L12.182,5.021 C12.204,4.976 12.230,4.933 12.261,4.894 C12.904,3.918 13.924,3.730 14.611,3.725 C16.012,3.743 16.819,4.567 17.074,5.038 C17.183,5.209 17.252,5.383 17.319,5.553 C17.356,5.645 17.393,5.743 17.441,5.840 C17.456,5.869 17.469,5.900 17.479,5.931 C17.825,6.967 18.000,7.997 18.000,8.992 C18.000,11.405 17.120,13.548 15.384,15.361 C13.552,17.119 11.411,18.000 9.000,18.000 L9.000,18.000 Z"/>
</svg>