<?xml version="1.0" standalone="no"?><!DOCTYPE svg PUBLIC "-//W3C//DTD SVG 1.1//EN" "http://www.w3.org/Graphics/SVG/1.1/DTD/svg11.dtd"><svg t="1576486339195" class="icon" viewBox="0 0 1024 1024" version="1.1" xmlns="http://www.w3.org/2000/svg" p-id="4730" xmlns:xlink="http://www.w3.org/1999/xlink" width="200" height="200"><defs><style type="text/css"></style></defs><path d="M399.84 615.936c-22.816 0-43.808 18.784-44.16 39.488-0.288 17.664 14.56 31.104 34.464 31.104 23.68 0.032 43.488-17.792 43.648-39.232 0.16-18.272-14.112-31.36-33.952-31.36zM456.608 600.192c-6.784 3.328-13.312 8.224-17.984 14.144-0.992 1.28 5.952 8.832 11.584 16.928 7.232-7.936 13.76-12.512 16.16-18.688 1.056-2.656-8.64-12.96-9.76-12.384z" fill="#FF6179" p-id="4731"></path><path d="M599.904 510.432c-11.008-6.88-22.848-12.64-34.944-17.536-40.48-16.192-82.944-20.992-126.112-17.216-65.28 5.664-125.568 24.896-172.448 73.312-54.368 56.096-47.008 127.104 16.992 171.616 43.328 30.08 92.512 40.416 144.48 39.168 9.44 0 18.912 0.736 28.288-0.128 59.168-5.664 113.664-23.616 158.816-63.648 65.984-58.4 59.36-138.816-15.072-185.568z m-73.216 164.896c-22.464 34.048-62.24 54.72-105.44 54.944-54.464 0.352-95.328-30.24-102.56-77.824-1.6-9.728-1.152-20.416 1.056-29.952 10.976-46.688 43.296-72.768 87.296-84.544 43.456-11.52 83.872-4 115.488 30.528 26.176 28.576 27.232 72.128 4.16 106.848z" fill="#FF6179" p-id="4732"></path><path d="M512.032 0C229.248 0 0 229.248 0 512s229.248 512 512 512 512-229.248 512-512S794.784 0 512.032 0z m244.16 664.864c-43.744 67.296-110.944 100.672-186.016 119.072-36.32 8.96-74.24 11.712-93.952 14.72-93.088-2.304-165.088-16.064-230.016-56.416-81.824-50.848-105.664-127.04-62.88-213.44 45.952-92.672 117.44-161.216 211.264-205.28 17.408-8.16 37.216-12.8 56.32-15.168 39.36-4.896 62.336 17.44 61.344 57.056-0.224 8.672-2.176 17.216-2.688 25.952-0.384 7.456 0.16 15.04 0.352 22.528 7.648-1.248 15.36-2.048 22.848-3.712 30.336-6.496 60.352-17.344 90.912-18.976 53.056-2.816 76.832 29.312 60.704 79.712-6.944 21.472-1.76 28.704 18.304 35.904 75.456 27.2 97.184 90.912 53.504 158.048z m-39.584-282.528c-12.48-15.872-40.8-19.552-49.76-19.648-13.248-0.096-23.936-10.944-23.808-24.16 0.096-13.184 10.816-23.776 23.936-23.776h0.192c5.856 0 58.368 1.504 87.104 37.92 11.392 14.432 23.072 40.096 13.824 80.032-2.56 11.136-12.448 18.624-23.36 18.624-1.76 0-3.552-0.224-5.376-0.672-12.928-2.976-20.96-15.872-17.984-28.736 4.032-17.472 2.464-30.432-4.768-39.584zM857.696 460.8c-1.888 11.776-12.032 20.288-23.68 20.288-1.184 0-2.496-0.16-3.744-0.352-13.056-2.016-21.984-14.304-19.968-27.392 8.896-56.608-0.16-100.64-27.04-130.72-46.784-52.416-132.544-49.312-133.408-49.312-13.376 0.544-24.448-9.696-25.024-22.88-0.544-13.216 9.76-24.416 22.944-25.024 4.448-0.16 109.44-3.84 171.264 65.248 36.864 41.376 49.856 98.624 38.656 170.144z" fill="#FF6179" p-id="4733"></path></svg>