<?xml version="1.0" standalone="no"?><!DOCTYPE svg PUBLIC "-//W3C//DTD SVG 1.1//EN" "http://www.w3.org/Graphics/SVG/1.1/DTD/svg11.dtd"><svg t="1576495793468" class="icon" viewBox="0 0 1181 1024" version="1.1" xmlns="http://www.w3.org/2000/svg" p-id="27124" xmlns:xlink="http://www.w3.org/1999/xlink" width="230.6640625" height="200"><defs><style type="text/css"></style></defs><path d="M1112.064 636.297846a1564.829538 1564.829538 0 0 0-264.034462-79.320615c69.947077-41.905231 112.324923-114.451692 112.403693-192.433231V228.588308C960.433231 102.557538 851.495385 0 717.508923 0 647.876923 0 581.553231 28.356923 535.630769 77.508923a220.002462 220.002462 0 0 0-61.046154 151.079385v135.955692c0 76.8 40.566154 144.699077 102.4 186.210462-149.425231 24.260923-291.288615 82.392615-297.90523 85.070769-40.251077 15.596308-70.577231 58.131692-70.577231 99.170461v164.076308h0.787692c5.907692 42.299077 44.347077 73.964308 89.796923 73.964308H1090.953846c39.620923 0 74.988308-24.418462 88.221539-60.652308l2.284307-6.459077v-170.929231c0-41.275077-30.404923-83.968-69.474461-98.697846" fill="#7BBC52" p-id="27125"></path><path d="M317.833846 521.373538c49.073231-13.942154 72.310154-21.740308 72.310154-21.740307s31.822769-12.760615 23.394462-38.281846c-19.692308-34.107077-33.634462-60.494769-33.634462-160.059077V171.953231s8.428308-63.015385 35.052308-68.923077c2.126769-2.126769 2.520615-5.198769 1.575384-8.664616a45.134769 45.134769 0 0 0-41.275077-24.891076C272.462769 69.632 189.046154 145.486769 189.046154 238.985846V346.584615c0 41.747692 17.329231 79.556923 45.056 109.174154a1019.588923 1019.588923 0 0 0-179.121231 70.892308C22.921846 540.356923 0 573.44 0 606.286769v117.366154c0 22.528 20.086154 40.802462 44.898462 40.802462 22.685538-0.157538 41.668923-15.753846 43.95323-36.391385 0.157538-1.496615 0.945231-2.914462 0.945231-4.489846V704.984615c3.623385-38.754462 19.534769-108.937846 85.622154-141.784615 10.082462-4.096 20.873846-8.113231 31.901538-12.130462 37.021538-9.452308 73.806769-19.298462 110.513231-29.696" fill="#7BBC52" p-id="27126"></path></svg>