<?xml version="1.0" standalone="no"?><!DOCTYPE svg PUBLIC "-//W3C//DTD SVG 1.1//EN" "http://www.w3.org/Graphics/SVG/1.1/DTD/svg11.dtd"><svg t="1576496403123" class="icon" viewBox="0 0 1024 1024" version="1.1" xmlns="http://www.w3.org/2000/svg" p-id="34478" xmlns:xlink="http://www.w3.org/1999/xlink" width="200" height="200"><defs><style type="text/css"></style></defs><path d="M0 0m512 0l0 0q512 0 512 512l0 0q0 512-512 512l0 0q-512 0-512-512l0 0q0-512 512-512Z" fill="#FA7070" p-id="34479"></path><path d="M641.166222 600.419556c-53.504-25.856-74.254222-22.954667-74.254222-44.003556 0-21.248 21.390222-35.797333 37.063111-58.680889 28.302222-41.315556 29.781333-88.988444 29.781333-109.809778 0-117.731556-94.72-131.925333-115.256888-131.925333h-12.856889c-20.536889 0-115.256889 14.193778-115.256889 131.925333 0 20.821333 1.479111 68.494222 29.781333 109.809778 15.672889 22.883556 37.12 37.432889 37.12 58.680889 0 21.048889-20.664889 18.147556-74.24 44.003556-53.717333 25.628444-126.976 67.015111-126.976 109.041777C256.071111 727.324444 256 768 256 768h512s-0.071111-40.675556-0.071111-58.538667c0.213333-41.955556-73.045333-83.342222-126.762667-109.041777z" fill="#FFFFFF" p-id="34480"></path></svg>