<?xml version="1.0" standalone="no"?><!DOCTYPE svg PUBLIC "-//W3C//DTD SVG 1.1//EN" "http://www.w3.org/Graphics/SVG/1.1/DTD/svg11.dtd"><svg t="1579157987030" class="icon" viewBox="0 0 1045 1024" version="1.1" xmlns="http://www.w3.org/2000/svg" p-id="4444" xmlns:xlink="http://www.w3.org/1999/xlink" width="204.1015625" height="200"><defs><style type="text/css"></style></defs><path d="M443.574389 991.813737c1.585471-14.948731 2.622584-28.073574 4.386868-40.936158 3.051735-22.458859 6.711432-44.726985 10.001584-67.114319 1.585471-11.217509 2.622584-22.506542 3.957718-33.735972l6.890244-51.855647c1.347055-10.001583 2.682189-20.134296 3.778906-30.207404 1.525867-15.067939 2.622584-30.195483 4.26766-45.299185 0.8583-8.046566 2.56298-16.045448 3.361676-24.092014 1.70468-16.593807-5.12596-31.542538-9.53667-46.980023-1.466263-5.495506-3.576251-10.979092-4.327264-16.534202-0.190733-1.776205 3.290151-5.733923 5.066356-5.733924 32.341234-0.369546 64.610943-0.238417 96.892573-0.238416 4.637206 0 6.341886 1.096717 4.637206 6.282281-3.659697 10.919488-6.461094 21.970105-9.536671 32.949197a125.29993 125.29993 0 0 0-3.468964 13.303656c-2.56298 15.36596-0.369546 30.505425 2.801397 45.752176 2.312643 10.800279 3.051735 21.838976 4.088848 32.818068 1.466263 15.985844 2.324563 32.031292 4.26766 47.957532 2.99213 23.305239 6.711432 46.491269 9.941979 69.736903 1.525867 10.371129 2.813318 20.742258 3.778905 31.113388 1.585471 15.675902 2.741793 31.423329 4.279581 47.039628 0.917905 9.536671 2.193434 19.073341 3.719302 28.610011 0.238417 1.835809 2.682189 3.302072 5.674319 6.651828 4.517998-17.273295 8.118091-32.186263 12.266542-46.920419 4.148452-15.127544 8.904866-30.076275 13.244052-45.144214 2.99213-10.490338 5.495506-21.171409 8.344586-31.721351 3.230547-11.467846 6.651828-22.876088 9.763167-34.41546 2.932526-10.490338 5.364377-21.111804 8.344587-31.602142 3.051735-11.277113 6.413411-22.506542 9.53667-33.795576 2.801397-10.371129 5.555111-20.992596 8.487637-31.423329 3.230547-11.837392 6.711432-23.543655 9.941979-35.440652 2.872922-10.800279 5.304773-21.719767 8.237299-32.460443 3.051735-11.289034 6.592224-22.446938 9.763167-33.616763 2.872922-10.251921 5.364377-20.563446 8.177695-30.815367 1.192084-4.69681 1.347055-10.979092 4.398789-13.542072 3.659697-3.051735 10.919488-5.006752 15.127543-3.576252 19.526333 6.949849 38.432782 15.437485 57.720699 22.935693 19.883958 7.748545 40.018254 14.948731 59.973737 22.518463 15.866636 6.043865 31.72135 12.135413 47.468778 18.429616 20.265425 8.10617 39.720233 17.690524 57.47036 30.565029 15.985844 11.65858 28.610012 25.987427 35.69099 43.928289 3.230547 7.927357 3.111339 17.082561 4.029243 25.808615 1.585471 15.92624 2.384168 31.971688 4.088848 47.957532 2.014622 18.799162 4.517998 37.526799 6.711432 56.314039l0.238416 2.56298c1.406659 19.073341 2.741793 37.884424 4.26766 56.802794 1.037113 13.112922 2.074226 26.225844 3.850431 39.171875 2.741793 20.921071-19.895879 42.700442-42.283213 42.521629-122.784633-1.096717-245.450058-0.786775-368.3539-0.786775q-258.527218 0-517.257089 0.548359c-15.306356 0-28.550407-3.302072-37.097649-15.49709-10.251921-14.769919-11.587055-31.72135-7.498207-48.875437 0.417229-1.70468 1.347055-3.361676 1.347055-5.006752 1.525867-18.668033 2.56298-37.336065 4.386868-55.944493 1.645076-15.866636 4.26766-31.673667 6.353807-47.468778l0.298021-2.622584c1.406659-18.608428 1.192084-37.586403 4.637206-55.825285 3.361676-17.750128 0.488754-36.608894 12.624168-53.143097a161.908824 161.908824 0 0 1 43.499138-40.328196c25.74901-16.343469 55.03851-25.260256 83.445867-36.060535 22.387334-8.53532 44.417043-17.881257 66.756694-26.845728 18.727637-7.450524 37.646007-14.829523 56.623982-21.719767 8.785658-3.290151 16.772619 2.741793 18.787241 11.718184 2.682189 11.598976 6.651828 23.007218 9.763166 34.570431 2.872922 10.490338 5.304773 21.111804 8.177695 31.661746 3.111339 11.527451 6.711432 22.947614 9.882375 34.570431 2.741793 10.192317 5.304773 20.503842 8.177695 30.755762 4.446473 16.224261 9.155204 32.341234 13.601676 48.625099 2.861001 10.192317 5.364377 20.432317 8.046566 30.624633 3.302072 11.920838 6.83064 23.61518 10.073108 35.452573 2.872922 10.561863 5.245169 21.171409 8.177695 31.721351 3.170943 11.527451 6.651828 22.935693 9.763167 34.475064 2.932526 10.549942 5.555111 21.111804 8.344586 31.72135 3.778906 14.65071 7.438603 29.349104 11.527451 43.928289 0.42915 1.835809 3.230547 2.861001 6.163073 5.304773zM290.606193 266.645308c3.421281-18.608428 7.378999-41.722934 12.016205-64.670547 5.364377-27.274878 17.690524-51.855646 32.770384-75.160884a228.784726 228.784726 0 0 1 87.856578-80.167637c16.474598-8.53532 33.795576-15.49709 52.451688-18.298487 13.852014-2.014622 27.632503-5.555111 41.484517-5.674319 14.400373-0.119208 28.979558 2.253038 43.189196 5.125961A216.780442 216.780442 0 0 1 599.618161 39.338766a219.236135 219.236135 0 0 1 88.214202 65.56461 264.785658 264.785658 0 0 1 41.305705 69.915716c5.793527 14.459977 8.666449 30.1478 11.920838 45.454156 2.801397 13.852014 6.103469 28.061653 5.960419 42.1044a449.522887 449.522887 0 0 1-5.614715 58.01872c-1.525867 11.348638-4.768335 22.399255-7.450524 33.557159-4.935227 21.350221-14.400373 40.876554-24.521164 60.212154a268.338068 268.338068 0 0 1-69.736903 84.506822 195.620955 195.620955 0 0 1-63.57383 34.892293c-20.801863 6.711432-41.913667 11.348638-63.693039 9.941979a193.785146 193.785146 0 0 1-97.130989-33.187613c-25.868219-17.511711-48.505891-38.492386-65.27851-64.610943a494.535972 494.535972 0 0 1-32.031292-56.254436c-7.748545-16.593807-12.874505-34.570431-18.000466-52.165587-2.682189-8.845262-3.111339-18.298487-4.26766-27.417928-1.585471-12.814901-2.99213-25.498673-5.006752-43.189197z m0 0" fill="#E5191A" p-id="4445"></path></svg>