<?xml version="1.0" standalone="no"?><!DOCTYPE svg PUBLIC "-//W3C//DTD SVG 1.1//EN" "http://www.w3.org/Graphics/SVG/1.1/DTD/svg11.dtd"><svg t="1576494449156" class="icon" viewBox="0 0 1024 1024" version="1.1" xmlns="http://www.w3.org/2000/svg" p-id="10566" xmlns:xlink="http://www.w3.org/1999/xlink" width="200" height="200"><defs><style type="text/css"></style></defs><path d="M872.7 158.6c1.5 4.6 1.5 4.6 1.8 9.4v263.3c0 146.3-65.7 284.7-178.6 376.3l-144 116.8c-23.4 19-56.9 19-80.3 0l-144-116.8C214.7 716 149 577.6 149 431.3V168c0-14.2 11.5-25.6 25.6-25.6 4.8 0.3 4.8 0.3 9.4 1.8 14.6 5.8 25.8 9.7 33.3 11.6 19.4 5.1 39.3 7.7 59.6 7.7 59.3 0 124.9-21.8 196.8-65.9 0.5-0.3 0.5-0.3 3-1.9 20.9-13.4 47.7-13.6 68.8-0.5 73.4 45.7 140.3 68.3 200.7 68.3 20.1 0 39.9-2.5 59.1-7.5 7.6-2 19-5.9 33.8-11.8 13.4-5.3 28.4 1.2 33.6 14.4z m-56.4 38.6c-22.7 5.9-46.1 8.9-69.8 8.9-69.1 0-143.5-25.1-223.3-74.8-7.1-4.4-16.2-4.4-23.2 0.2-2.5 1.6-2.5 1.6-3.8 2.4-78.1 47.9-151.2 72.2-219.1 72.2-23.9 0-47.5-3.1-70.4-9-4.3-1.1-9.3-2.7-14.9-4.6v238.8c0 133.4 59.9 259.7 162.8 343.2l144 116.8c7.8 6.3 18.8 6.3 26.5 0l144-116.8C772 691 831.9 564.8 831.9 431.3V192.5c-6 2-11.2 3.6-15.6 4.7z m15.5-29.2c0.2 3.2 0.2 3.2 1.2 6.2 3.5 8.7 13.3 13 22.1 9.6l-7.8-19.8 19.8-7.8 7.8 19.9-19.8 7.8c-8.7 3.5-16.5 6.3-23.3 8.6V168z m-512 365.3v-42.7h384v42.7h-384zM490.5 320h42.7v384h-42.7V320z" p-id="10567"></path></svg>