<?xml version="1.0" standalone="no"?><!DOCTYPE svg PUBLIC "-//W3C//DTD SVG 1.1//EN" "http://www.w3.org/Graphics/SVG/1.1/DTD/svg11.dtd"><svg t="1576494462394" class="icon" viewBox="0 0 1024 1024" version="1.1" xmlns="http://www.w3.org/2000/svg" p-id="11018" xmlns:xlink="http://www.w3.org/1999/xlink" width="200" height="200"><defs><style type="text/css"></style></defs><path d="M942.112 606.08L528 360.16 84.608 623.424C81.6 607.616 80 591.424 80 575.04V64a64 64 0 0 1 64-64h736a64 64 0 0 1 64 64v511.04c0 10.432-0.64 20.8-1.888 31.04z m-30.464 93.536a255.872 255.872 0 0 1-71.264 81.152L512 1024 183.616 780.768A255.84 255.84 0 0 1 120.736 713.6L528 471.808l383.648 227.808z" fill="#39A2FF" p-id="11019"></path><path d="M911.648 699.616a255.872 255.872 0 0 1-71.264 81.152L512 1024 183.616 780.768A255.84 255.84 0 0 1 120.736 713.6L528 471.808l383.648 227.808z" fill="#85D8FF" p-id="11020"></path></svg>