<?xml version="1.0" standalone="no"?><!DOCTYPE svg PUBLIC "-//W3C//DTD SVG 1.1//EN" "http://www.w3.org/Graphics/SVG/1.1/DTD/svg11.dtd"><svg t="1576720332983" class="icon" viewBox="0 0 1024 1024" version="1.1" xmlns="http://www.w3.org/2000/svg" p-id="6037" xmlns:xlink="http://www.w3.org/1999/xlink" width="200" height="200"><defs><style type="text/css"></style></defs><path d="M700.416 41.216H323.584c-156.416 0-282.88 126.208-282.88 282.88v377.088c0 156.416 126.208 282.88 282.88 282.88h377.088c156.416 0 282.88-126.208 282.88-282.88V323.84c-0.256-156.416-126.464-282.624-283.136-282.624z m40.192 773.888c-44.8 0-81.152-36.352-81.152-81.152 0-37.12 25.088-68.608 59.136-78.08-33.024-55.552-94.976-108.288-193.536-112.64v110.592c38.656 6.144 68.352 39.68 68.352 80.128 0 44.8-36.608 81.152-81.152 81.152s-81.152-36.352-81.152-81.152c0-40.192 29.184-73.216 67.072-80.128v-110.848c-102.144 4.096-160.256 60.672-193.024 112.64 34.56 9.472 59.904 40.704 59.904 78.336 0 44.8-36.608 81.152-81.152 81.152S202.24 778.752 202.24 733.696c0-43.008 33.536-78.08 75.776-81.152 33.792-64.512 100.864-132.864 219.904-137.216v-88.32c-52.992-7.68-93.44-53.248-93.44-108.288 0-60.416 48.896-109.312 109.312-109.312s109.312 48.896 109.312 109.312c0 55.04-40.704 100.608-93.44 108.288v88.32c114.432 4.352 181.248 76.288 218.624 137.216 41.216 4.096 73.472 38.656 73.728 80.896-0.256 45.056-36.864 81.664-81.408 81.664z" fill="#F86C28" p-id="6038"></path></svg>