<?xml version="1.0" standalone="no"?><!DOCTYPE svg PUBLIC "-//W3C//DTD SVG 1.1//EN" "http://www.w3.org/Graphics/SVG/1.1/DTD/svg11.dtd"><svg t="1576494445505" class="icon" viewBox="0 0 1024 1024" version="1.1" xmlns="http://www.w3.org/2000/svg" p-id="10454" xmlns:xlink="http://www.w3.org/1999/xlink" width="200" height="200"><defs><style type="text/css"></style></defs><path d="M262.736 325.648c0.352 0 0.704-0.08 1.056-0.096 0.592-0.032 1.168-0.08 1.792-0.16 8.064-0.576 15.904-3.456 22.256-8.512l223.312-177.408 234.864 184.512c6.128 4.816 13.328 7.552 20.944 8.288 1.328 0.208 2.64 0.32 3.984 0.32 12.496 0 24.064-5.616 31.76-15.424 6.672-8.48 9.632-19.056 8.368-29.776-1.296-10.72-6.656-20.288-15.152-26.944L535.984 56.224c-7.072-5.568-15.936-8.64-24.96-8.64a40.466 40.466 0 0 0-25.104 8.768L237.6 253.632c-8.464 6.72-13.792 16.304-15.008 27.024-1.216 10.736 1.792 21.28 8.48 29.728 7.712 9.696 19.248 15.264 31.664 15.264z" fill="#1C96DC" p-id="10455"></path><path d="M859.056 387.936H750.16l-235.92-186.16-235.92 186.16H169.44c-39.952 0-72.336 32.4-72.336 72.336V977.04h834.304V460.272c-0.016-39.936-32.416-72.336-72.352-72.336z m-148.448 54.912h118.368v118.368H710.608V442.848zM471.584 294.32H552.8v81.216h-81.216V294.32z m-44.912 209.472h61.824v-61.824h50.72v61.824h61.824v50.736h-61.824v61.824h-50.72v-61.824h-61.824v-50.736z m173.024 348.72H428.784v-79.248c0-47.2 38.288-85.456 85.456-85.456 47.2 0 85.472 38.256 85.472 85.456v79.248zM195.424 442.848h118.32v118.368h-118.32V442.848z m-20.08 266.32c0-47.2 38.256-85.456 85.472-85.456 47.2 0 85.456 38.256 85.456 85.456v143.344H175.344V709.168zM682.24 852.512V709.168c0-47.2 38.256-85.456 85.44-85.456 47.2 0 85.472 38.256 85.472 85.456v143.344H682.24z" fill="#1C96DC" p-id="10456"></path></svg>