<?xml version="1.0" standalone="no"?><!DOCTYPE svg PUBLIC "-//W3C//DTD SVG 1.1//EN" "http://www.w3.org/Graphics/SVG/1.1/DTD/svg11.dtd"><svg t="1576494490285" class="icon" viewBox="0 0 1024 1024" version="1.1" xmlns="http://www.w3.org/2000/svg" p-id="12044" xmlns:xlink="http://www.w3.org/1999/xlink" width="200" height="200"><defs><style type="text/css"></style></defs><path d="M512.047057 113.824607L56.246346 511.573419H170.837163V528.879121h0.051149v267.55964c0 62.83841 51.035301 113.77755 113.99749 113.777551h456.002238c62.96219 0 114.003628-50.940164 114.003628-113.777551V530.925075h0.317123v-19.351656h112.638977L512.047057 113.824607z m172.397203 568.841719H570.666709v113.77755c0 31.418693-25.470082 56.888775-56.888775 56.888775H512c-31.418693 0-56.888775-25.470082-56.888775-56.888775V682.666326H341.333674c-31.418693 0-56.888775-25.470082-56.888775-56.888776 0-31.418693 25.470082-56.888775 56.888775-56.888775h113.777551V528.879121H455.224775v-53.194805h-0.11355v-20.573091c0-31.418693 25.470082-56.888775 56.888775-56.888775h1.777934c31.418693 0 56.888775 25.470082 56.888775 56.888775v56.463217H570.821179v0.421466h-0.15447v56.89389h113.777551c31.418693 0 56.888775 25.470082 56.888775 56.888775 0 31.41767-25.470082 56.887752-56.888775 56.887753z" p-id="12045"></path></svg>