<?xml version="1.0" standalone="no"?><!DOCTYPE svg PUBLIC "-//W3C//DTD SVG 1.1//EN" "http://www.w3.org/Graphics/SVG/1.1/DTD/svg11.dtd"><svg t="1576494423933" class="icon" viewBox="0 0 1026 1024" version="1.1" xmlns="http://www.w3.org/2000/svg" p-id="9899" xmlns:xlink="http://www.w3.org/1999/xlink" width="200.390625" height="200"><defs><style type="text/css"></style></defs><path d="M 960.875 399.079 a 25.2809 25.2809 0 0 0 -50.5617 0 v 436.517 a 73.0336 73.0336 0 0 1 -73.0336 72.4718 H 186.159 A 73.0336 73.0336 0 0 1 112.562 836.719 V 186.159 A 73.0336 73.0336 0 0 1 186.159 113.687 H 623.798 a 25.8427 25.8427 0 0 0 0 -51.6853 H 186.159 A 123.595 123.595 0 0 0 62.001 186.159 v 650.561 a 123.595 123.595 0 0 0 124.157 124.157 h 650.561 A 123.595 123.595 0 0 0 960.875 836.719 V 399.079 Z M 307.507 663.686 a 38.2022 38.2022 0 0 0 7.30336 36.5168 a 33.1461 33.1461 0 0 0 24.1572 8.98875 a 56.1797 56.1797 0 0 0 12.3595 0 l 138.763 -36.5168 l 441.572 -437.641 a 80.3369 80.3369 0 0 0 1e-008 -112.359 l -30.8989 -33.7078 a 82.0223 82.0223 0 0 0 -115.73 0 L 342.899 526.607 Z m 76.9662 -96.0675 l 64.0448 63.483 l -85.9549 21.9101 Z m 30.337 -41.0112 l 344.944 -342.134 l 74.1572 73.5953 l -344.382 343.258 Z m 449.438 -402.809 l 30.337 30.337 a 30.337 30.337 0 0 1 0 43.2583 l -25.2809 25.2809 l -73.5953 -73.0336 l 25.2809 -25.2809 a 31.4606 31.4606 0 0 1 43.8202 0 Z m 0 0" p-id="9900"></path></svg>