<?xml version="1.0" standalone="no"?><!DOCTYPE svg PUBLIC "-//W3C//DTD SVG 1.1//EN" "http://www.w3.org/Graphics/SVG/1.1/DTD/svg11.dtd"><svg t="1576494442134" class="icon" viewBox="0 0 1126 1024" version="1.1" xmlns="http://www.w3.org/2000/svg" p-id="10343" xmlns:xlink="http://www.w3.org/1999/xlink" width="219.921875" height="200"><defs><style type="text/css"></style></defs><path d="M1115.275909 327.784432c0-0.6655-0.255962-1.177423-0.255962-1.791731a32.814278 32.814278 0 0 0-1.996501-6.859771l-95.371294-239.06814C1001.270609 30.86897 955.709444 0 898.425236 0H230.519022c-56.055592 0-99.825026 30.203469-115.489876 77.709944L12.695696 321.487777c-0.358346 1.53577-1.126231 3.583462-1.53577 5.73354A229.341599 229.341599 0 0 0 0 397.713143c0 83.443483 45.356397 159.566465 118.254262 198.728591 29.947508 16.227966 65.270209 24.46993 104.944258 24.469929h0.307154a222.174674 222.174674 0 0 0 170.47043-80.115982 221.150827 221.150827 0 0 0 169.497775 79.860021 220.178173 220.178173 0 0 0 168.678698-80.064791 221.150827 221.150827 0 0 0 170.982353 79.860021c40.595511-0.307154 76.430135-8.753887 106.684797-25.493776a225.809329 225.809329 0 0 0 105.456182-267.223916z m-236.508524 39.776434H229.085637a40.646703 40.646703 0 0 1-40.595511-40.953857c0-22.678198 18.122082-40.953857 40.595511-40.953857h649.73294c22.524621 0 40.595511 18.275659 40.595511 40.953857 0 22.678198-18.224466 40.953857-40.749088 40.953857z m163.252312 327.528471c0-22.729391-18.122082-40.953857-40.595511-40.953857a37.728741 37.728741 0 0 0-11.825426 2.406039 248.180373 248.180373 0 0 1-97.521372 16.99585c-63.990401-3.583462-112.879068-16.227966-159.771234-56.567514a261.387992 261.387992 0 0 1-168.320352 63.120132c-63.73444-0.358346-123.322302-16.432735-169.804929-56.516323-46.892166 40.339549-106.73599 59.843823-170.47043 59.843823h-0.204769c-38.906164 0-60.86767-7.474079-96.292756-20.681697-0.870269-0.358346-2.047693-0.614308-3.071539-1.126231l-4.709694-1.791732s-5.938309-1.126231-8.958656-1.126231a40.851472 40.851472 0 0 0-40.595511 40.953857l0.255962 219.359096C70.13348 976.749488 116.872069 1023.846423 174.207469 1023.846423l764.096585-0.358346a104.944258 104.944258 0 0 0 103.920412-104.944259l-0.204769-223.454481z" fill="#CCCCCC" p-id="10344"></path></svg>