<?xml version="1.0" standalone="no"?><!DOCTYPE svg PUBLIC "-//W3C//DTD SVG 1.1//EN" "http://www.w3.org/Graphics/SVG/1.1/DTD/svg11.dtd"><svg t="1576494477458" class="icon" viewBox="0 0 1024 1024" version="1.1" xmlns="http://www.w3.org/2000/svg" p-id="11589" xmlns:xlink="http://www.w3.org/1999/xlink" width="200" height="200"><defs><style type="text/css"></style></defs><path d="M912.014 509.955c0-221.128-179.902-401.038-401.037-401.038s-401.042 179.91-401.042 401.038c0 109.106 44.646 213.366 122.92 288.796 7.37 5.751 17.867 5.123 24.341-1.749l0.54-0.621c6.323-7.373 5.75-18.359-1.315-25.026-70.319-68.53-110.361-162.799-110.361-261.4 0-201.211 163.703-364.914 364.917-364.914 201.217 0 364.913 163.703 364.913 364.914 0 29.668-3.753 58.969-10.768 87.46l0.649-2.266h0.015c-2.724 9.666 2.865 19.707 12.509 22.473 8.644 2.477 17.576-1.757 21.373-9.589 8.028-31.94 12.346-64.812 12.346-98.078" p-id="11590"></path><path d="M658.388 376.223c0-9.525-7.33-17.25-16.649-18.062h-261.53c-9.314 0.812-16.648 8.53-16.648 18.055v0.015c0 9.518 7.327 17.243 16.641 18.055h261.542c9.314-0.812 16.644-8.545 16.644-18.063M469.762 318.995c6.978-6.978 7.027-18.167 0.317-25.314l-52.75-52.747c-7.152-6.711-18.341-6.668-25.324 0.31-6.818 6.83-6.928 17.631-0.664 24.786l53.623 53.623c7.17 6.264 17.968 6.173 24.798-0.658M629.919 241.285c-6.899-6.899-17.886-6.97-25.048-0.5l-52.816 52.824c-6.717 7.141-6.675 18.345 0.317 25.323 6.823 6.822 17.631 6.928 24.793 0.648l53.228-53.228c6.498-7.152 6.427-18.159-0.474-25.067M822.755 670.186l-25.54-25.535-192.033 192.011-102.404-102.391L367.615 869.44l-44.598-44.604c-7.134-6.449-18.056-6.386-24.955 0.438l-0.152 0.147c-6.827 6.916-6.895 17.845-0.421 24.978l70.126 70.132L502.778 785.36l102.403 102.398 217.574-217.572z" p-id="11591"></path><path d="M836.612 775.173V627.726H688.974c-9.102 1.015-16.214 8.637-16.214 18.013 0 9.666 7.565 17.513 17.09 18.112h110.638v110.63c0.649 9.483 8.459 16.989 18.099 16.989 9.395 0 17.052-7.147 18.025-16.297M719.829 509.051c0-9.525-7.332-17.244-16.659-18.062h-384.4c-9.314 0.818-16.648 8.53-16.648 18.055v0.014c0 9.524 7.327 17.242 16.641 18.055h384.421c9.313-0.812 16.645-8.537 16.645-18.062" p-id="11592"></path><path d="M510.973 372.738c-9.521 0-17.243 7.338-18.062 16.658v292.24c0.819 9.314 8.533 16.652 18.055 16.652h0.014c9.525 0 17.248-7.331 18.059-16.646v-292.26c-0.811-9.314-8.541-16.644-18.066-16.644" p-id="11593"></path></svg>