<?xml version="1.0" standalone="no"?><!DOCTYPE svg PUBLIC "-//W3C//DTD SVG 1.1//EN" "http://www.w3.org/Graphics/SVG/1.1/DTD/svg11.dtd"><svg t="1576494471267" class="icon" viewBox="0 0 1024 1024" version="1.1" xmlns="http://www.w3.org/2000/svg" p-id="11359" xmlns:xlink="http://www.w3.org/1999/xlink" width="200" height="200"><defs><style type="text/css"></style></defs><path d="M928.65536 790.838613a52.974933 52.974933 0 0 0-18.059947-27.091626 125.207893 125.207893 0 0 0-29.498026-16.85504l-34.914987-12.038827a285.94176 285.94176 0 0 1-33.109333-11.43808 85.48352 85.48352 0 0 1-26.487467-16.254293 54.784 54.784 0 0 1-18.660693-38.529707 79.47264 79.47264 0 0 1 0-19.264853 37.925547 37.925547 0 0 1 9.632426-22.869334l18.660694-16.254293a41.53344 41.53344 0 0 0 9.03168-12.629333 163.157333 163.157333 0 0 0 7.826773-16.254294l6.02112-20.48a30.098773 30.098773 0 0 0 10.24-6.621866 43.349333 43.349333 0 0 0 9.028267-12.629334 60.194133 60.194133 0 0 0 4.816213-21.671253 60.197547 60.197547 0 0 0 0-17.4592 43.943253 43.943253 0 0 0-3.611307-11.43808 21.671253 21.671253 0 0 0-6.02112-8.42752 441.828693 441.828693 0 0 0 0-51.77344 318.464 318.464 0 0 0-10.24-46.957227 137.263787 137.263787 0 0 0-22.869333-45.151573 91.508053 91.508053 0 0 0-18.059947-18.059947 143.27808 143.27808 0 0 0-29.498026-16.254293 168.564053 168.564053 0 0 0-31.90784-11.43808 146.8928 146.8928 0 0 0-34.914987-4.215467 189.63456 189.63456 0 0 0-28.29312 0 120.40192 120.40192 0 0 0-29.498027 8.42752 131.84 131.84 0 0 0-28.89728 17.4592 116.790613 116.790613 0 0 0-27.091626 28.89728A136.656213 136.656213 0 0 0 553.618773 385.706667a309.445973 309.445973 0 0 0-9.045333 44.530346 325.69344 325.69344 0 0 0 0 48.76288 41.540267 41.540267 0 0 0-7.826773 13.243734 60.20096 60.20096 0 0 0-8.42752 18.059946 47.557973 47.557973 0 0 0 0 19.8656 48.162133 48.162133 0 0 0 15.049386 25.88672 26.49088 26.49088 0 0 0 8.42752 4.215467l6.02112 20.48a60.204373 60.204373 0 0 0 6.02112 16.254293 37.925547 37.925547 0 0 0 8.42752 13.243734l18.660694 17.4592a36.119893 36.119893 0 0 1 9.632426 23.476906v18.660694a42.74176 42.74176 0 0 1 0 16.254293 54.17984 54.17984 0 0 1-9.632426 15.653547 95.11936 95.11936 0 0 1-19.264854 16.254293 130.048 130.048 0 0 1-37.3248 16.85504l-25.285973 6.02112-31.30368-10.24a228.78208 228.78208 0 0 1-30.702933-10.837333 60.20096 60.20096 0 0 1-44.547414-63.829334l60.20096-10.24a193.846613 193.846613 0 0 0 17.4592-31.90784 330.51648 330.51648 0 0 0 13.243734-36.724053 197.45792 197.45792 0 0 0 7.826773-48.162133 240.80384 240.80384 0 0 0 0-42.141014 332.9024 332.9024 0 0 0-10.24-51.16928 348.566187 348.566187 0 0 0-18.660693-52.374186 201.669973 201.669973 0 0 0-28.89728-46.957227 142.677333 142.677333 0 0 0-40.936107-33.713493 110.769493 110.769493 0 0 0-53.589333-12.629334h-26.487467a133.645653 133.645653 0 0 0-46.353067 8.42752 138.461867 138.461867 0 0 0-60.20096 37.3248 172.17536 172.17536 0 0 0-34.914986 57.1904 252.245333 252.245333 0 0 0-18.059947 66.822827v65.61792a248.630613 248.630613 0 0 0 6.048427 60.20096 167.963307 167.963307 0 0 0 13.243733 36.724053 65.621333 65.621333 0 0 0 19.264853 23.476907l52.374187 8.42752a106.55744 106.55744 0 0 1 0 15.653547 39.130453 39.130453 0 0 1-3.611307 13.84448 55.38816 55.38816 0 0 1-9.632426 13.243733 104.74496 104.74496 0 0 1-17.4592 14.44864 115.582293 115.582293 0 0 1-36.724054 16.254293 390.690133 390.690133 0 0 0-39.7312 12.629334 120.398507 120.398507 0 0 0-34.31424 19.264853 54.784 54.784 0 0 0-18.059946 36.119893 267.291307 267.291307 0 0 0 0 66.822827 60.20096 60.20096 0 0 0 9.632426 31.30368 100.53632 100.53632 0 0 0 31.30368 10.837333c16.85504 4.215467 37.3248 7.826773 60.20096 12.038827s46.353067 7.222613 70.434134 9.632427 35.519147 4.215467 54.17984 5.41696h40.936106l49.353387-4.805974 51.77344-7.222613 23.476907-4.215467h13.847893l43.946667 6.02112 49.363626 5.41696 48.162134 3.611307h81.872213l50.568533-3.611307 52.374187-5.41696 46.957227-7.222613a352.781653 352.781653 0 0 0 34.914986-8.42752 34.914987 34.914987 0 0 0 16.85504-9.03168 60.20096 60.20096 0 0 0 6.02112-20.48 343.149227 343.149227 0 0 0 0-84.882773zM562.03264 88.90368a60.20096 60.20096 0 0 0-49.967787 28.29312 59.65824 59.65824 0 0 0-104.748373 56.589653 535.190187 535.190187 0 0 0 104.748373 111.957334 534.586027 534.586027 0 0 0 103.54688-107.158187 60.586667 60.586667 0 0 0-53.579093-89.68192z" fill="" p-id="11360"></path></svg>