<?xml version="1.0" standalone="no"?><!DOCTYPE svg PUBLIC "-//W3C//DTD SVG 1.1//EN" "http://www.w3.org/Graphics/SVG/1.1/DTD/svg11.dtd"><svg t="1582856491668" class="icon" viewBox="0 0 1415 1024" version="1.1" xmlns="http://www.w3.org/2000/svg" p-id="1984" xmlns:xlink="http://www.w3.org/1999/xlink" width="276.3671875" height="200"><defs><style type="text/css"></style></defs><path d="M202.550266 1023.98468a103.274438 103.274438 0 0 1-50.419252-13.114215 99.582235 99.582235 0 0 1-48.458247-63.778591l-101.11427-432.983557c-11.413656-48.871897 16.50001-98.341287 64.958258-115.040462 159.576701-55.045995 723.840285-217.656125 1284.227821-0.398329 46.665767 18.108646 72.434586 65.95408 61.281376 113.784194l-99.582235 426.211965a99.091984 99.091984 0 0 1-51.506996 65.463829 103.580845 103.580845 0 0 1-86.86635 3.584961c-121.796733-50.143485-457.205021-149.480595-939.995015 11.015327a102.891429 102.891429 0 0 1-32.52509 5.254878z m-110.91929-554.979455c-12.639284 4.350978-19.778564 16.208924-16.974941 28.189432l101.11427 432.998878a25.125364 25.125364 0 0 0 12.5014 16.05572 29.108653 29.108653 0 0 0 23.424806 2.22145c488.136795-162.227121 830.730324-75.406732 991.532652-9.192206a29.537623 29.537623 0 0 0 24.818957-1.011143 25.156005 25.156005 0 0 0 13.282739-16.46937l99.582234-426.227285c2.696381-11.536219-4.01393-23.256282-15.933157-27.883026-536.870809-208.203473-1079.731872-51.598918-1233.287678 1.34819z" p-id="1985"></path><path d="M268.948636 411.860342a33.704756 33.704756 0 0 1-33.383029-28.786926L212.952779 230.590034c-10.540397-71.040434 28.174112-139.415129 92.044626-162.594809 365.681287-132.658857 674.095128-38.408102 789.610521 8.272986 47.018135 18.981906 78.608684 67.945725 78.608684 121.827374v175.050248a33.704756 33.704756 0 0 1-42.988885 32.448488c-440.490526-125.320412-846.801364 3.309194-850.861255 4.596104a34.149046 34.149046 0 0 1-10.417834 1.669917z m10.724241-191.16725l16.974941 114.381687c110.015389-29.032052 440.597768-98.601733 809.036716-5.898333V198.095585c0-26.657398-14.630928-50.465213-36.385816-59.25909-108.391433-43.770222-397.593563-132.107325-741.336118-7.399726-33.260466 12.087751-54.019532 50.449892-48.259083 89.256323zM855.120311 611.576344q0 36.952669-30.380242 36.95267H746.100744v81.611471q0 19.073828-9.529254 27.408095t-27.408095 8.349588q-18.476335 0-28.005588-8.640674t-9.529254-27.714502v-81.05994h-73.292525q-19.073828 0-27.408095-9.544574t-8.334267-27.362134q0-18.384413 8.640674-27.990268t27.699182-9.529254h72.695031v-82.86774q0-13.696387 9.529254-21.739567t28.005588-8.01254Q746.100744 461.436975 746.100744 491.786576v82.224285h79.236819q14.293881 0 22.045974 9.820341t7.736774 27.745142z" p-id="1986"></path></svg>