<?xml version="1.0" standalone="no"?><!DOCTYPE svg PUBLIC "-//W3C//DTD SVG 1.1//EN" "http://www.w3.org/Graphics/SVG/1.1/DTD/svg11.dtd"><svg t="1576494418942" class="icon" viewBox="0 0 1024 1024" version="1.1" xmlns="http://www.w3.org/2000/svg" p-id="9788" xmlns:xlink="http://www.w3.org/1999/xlink" width="200" height="200"><defs><style type="text/css"></style></defs><path d="M209.764 655.38L120.04 433.242c-7.884-20.514-7.621-42.963 0.79-63.594 7.99-19.694 22.392-35.401 40.683-44.193L637.527 96.34c38.582-18.639 82.892-0.762 98.61 39.914l90.673 234.272-48.254 23.21-90.673-234.272c-4.205-10.784-17.66-14.945-29.54-9.32L182.327 379.261a27.527 27.527 0 0 0-13.614 14.536c-1.261 3.165-3.048 9.377-0.525 15.825l89.515 221.787-47.939 23.971zM830.54 947.328H286.297c-43.469 0-78.845-39.447-78.845-87.916v-409.29c0-48.47 35.375-87.917 78.845-87.917H830.54c43.47 0 78.845 39.446 78.845 87.918v409.29c0 48.468-35.375 87.915-78.845 87.915zM286.297 420.817c-14.507 0-26.28 13.128-26.28 29.305v409.29c0 16.116 11.774 29.303 26.28 29.303H830.54c14.455 0 26.282-13.187 26.282-29.303v-409.29c0-16.177-11.827-29.304-26.282-29.304l-544.243-0.001zM412.45 693.949c-7.202 0-14.14-4.398-17.609-12.075-4.94-10.84-1.052-24.03 8.726-29.54l225.602-127.071c9.619-5.45 21.551-1.174 26.493 9.729 4.886 10.842 1 24.032-8.725 29.48l-225.655 127.13c-2.84 1.585-5.836 2.347-8.832 2.347z m82.893 115.991c-6.886 0-13.563-3.985-17.19-11.136-5.36-10.55-2.047-23.915 7.413-29.949l230.648-145.77c9.252-5.979 21.446-2.341 26.859 8.324 5.416 10.55 2.05 23.914-7.464 29.95L505.013 807.13a17.873 17.873 0 0 1-9.67 2.811z" p-id="9789"></path></svg>