<?xml version="1.0" standalone="no"?><!DOCTYPE svg PUBLIC "-//W3C//DTD SVG 1.1//EN" "http://www.w3.org/Graphics/SVG/1.1/DTD/svg11.dtd"><svg t="1582871783754" class="icon" viewBox="0 0 1024 1024" version="1.1" xmlns="http://www.w3.org/2000/svg" p-id="2736" xmlns:xlink="http://www.w3.org/1999/xlink" width="200" height="200"><defs><style type="text/css"></style></defs><path d="M42.666667 682.666667h170.666666a42.666667 42.666667 0 0 1 42.666667 42.666666V1024H0V725.333333A42.666667 42.666667 0 0 1 42.666667 682.666667zM426.666667 0h170.666666a42.666667 42.666667 0 0 1 42.666667 42.666667V1024h-256V42.666667A42.666667 42.666667 0 0 1 426.666667 0z m384 341.333333h170.666666a42.666667 42.666667 0 0 1 42.666667 42.666667V1024H768V384a42.666667 42.666667 0 0 1 42.666667-42.666667z" fill="#9571E9" p-id="2737"></path></svg>