<?xml version="1.0" standalone="no"?><!DOCTYPE svg PUBLIC "-//W3C//DTD SVG 1.1//EN" "http://www.w3.org/Graphics/SVG/1.1/DTD/svg11.dtd"><svg t="1576494499377" class="icon" viewBox="0 0 1024 1024" version="1.1" xmlns="http://www.w3.org/2000/svg" p-id="12390" xmlns:xlink="http://www.w3.org/1999/xlink" width="200" height="200"><defs><style type="text/css"></style></defs><path d="M958.113383 525.09198l-149.995903 0 0 202.902832 0 50.729405 83.326305 0 0 67.63994 49.996902 0 0 67.637941L74.822454 914.002099l0-67.637941 50.001899 0 0-67.63994 99.993404 0L224.817758 525.09198 62.363502 525.09198l229.123055-152.193413L129.027703 372.898567l362.442264-236.727299L491.469967 102.345202l33.324406 0 0 33.826066 383.317111 236.727299-168.177576 0L958.113383 525.09198 958.113383 525.09198zM274.819456 525.09198l0 202.902832 83.326704 0L358.146161 525.09198 274.819456 525.09198 274.819456 525.09198zM491.469967 525.09198l-83.321708 0 0 202.902832 83.321708 0L491.469967 525.09198 491.469967 525.09198zM624.789177 525.09198 541.456876 525.09198l0 202.902832 83.332301 0L624.789177 525.09198 624.789177 525.09198zM674.788278 727.994812l83.327304 0L758.115582 525.09198l-83.327304 0L674.788278 727.994812 674.788278 727.994812z" p-id="12391"></path></svg>