<?xml version="1.0" standalone="no"?><!DOCTYPE svg PUBLIC "-//W3C//DTD SVG 1.1//EN" "http://www.w3.org/Graphics/SVG/1.1/DTD/svg11.dtd"><svg t="1576494459197" class="icon" viewBox="0 0 1024 1024" version="1.1" xmlns="http://www.w3.org/2000/svg" p-id="10901" xmlns:xlink="http://www.w3.org/1999/xlink" width="200" height="200"><defs><style type="text/css"></style></defs><path d="M768 409.6l0 563.2-51.2 0L716.8 102.4 307.2 102.4l0 870.4-51.2 0L256 409.6 51.2 409.6l0 563.2 0 51.2 204.8 0 51.2 0 102.4 0 204.8 0 102.4 0 51.2 0 204.8 0 0-51.2L972.8 409.6 768 409.6zM102.4 460.8l102.4 0 0 51.2L102.4 512 102.4 460.8zM102.4 614.4l102.4 0 0 51.2L102.4 665.6 102.4 614.4zM102.4 768l102.4 0 0 51.2L102.4 819.2 102.4 768zM409.6 204.8l204.8 0 0 51.2L409.6 256 409.6 204.8zM409.6 358.4l204.8 0 0 51.2L409.6 409.6 409.6 358.4zM409.6 512l204.8 0 0 51.2L409.6 563.2 409.6 512zM409.6 972.8 409.6 716.8l204.8 0 0 256L409.6 972.8zM819.2 460.8l102.4 0 0 51.2-102.4 0L819.2 460.8zM819.2 614.4l102.4 0 0 51.2-102.4 0L819.2 614.4zM819.2 768l102.4 0 0 51.2-102.4 0L819.2 768z" fill="#3f81c1" p-id="10902"></path></svg>