<?xml version="1.0" standalone="no"?><!DOCTYPE svg PUBLIC "-//W3C//DTD SVG 1.1//EN" "http://www.w3.org/Graphics/SVG/1.1/DTD/svg11.dtd"><svg t="1576494483318" class="icon" viewBox="0 0 1024 1024" version="1.1" xmlns="http://www.w3.org/2000/svg" p-id="11821" xmlns:xlink="http://www.w3.org/1999/xlink" width="200" height="200"><defs><style type="text/css"></style></defs><path d="M731.7791338 635.48997593v-50.31716824H526.16528225v50.31716824h44.75533962c13.12243939 0 23.89848232 11.03675365 23.89848233 24.15919304v119.57931518c0 13.29624653-10.77604294 24.07228947-23.89848233 24.07228948H452.47105313c-13.12243939 0-24.07228947-10.86294651-24.07228947-24.07228948V659.5622654c0-13.12243939 10.94985008-24.15919304 24.07228947-24.15919304h44.58153247v-50.31716824H296.65294838V635.40307236h44.66843605c13.03553581 0 23.98538589 11.03675365 23.98538589 24.15919304v119.57931518c0 13.29624653-10.86294651 24.07228947-23.98538589 24.07228947H222.78491211c-13.3831501 0-24.07228947-10.86294651-24.07228947-24.07228947V659.5622654c0-13.12243939 10.68913936-24.15919304 24.07228947-24.15919304h44.75533962v-64.91696835c0-8.0820322 6.5177679-14.68670368 14.33908939-14.68670367h215.17324448V454.29602813h-82.64529705c-13.3831501 0-23.98538589-11.03675365-23.98538589-24.41990375V246.33578015c0-13.3831501 10.60223579-24.07228947 23.98538589-24.07228947h194.31638718c13.3831501 0 24.15919304 10.68913936 24.15919304 24.07228947v183.45344065c0 13.3831501-10.77604294 24.41990376-24.15919304 24.41990376h-82.64529705v101.59027577h220.3874588c7.82132149 0 14.16528225 6.5177679 14.16528225 14.68670368V635.40307236h39.80183601c13.20934297 0 23.98538589 11.03675365 23.98538589 24.15919304v119.57931518c0 13.29624653-10.77604294 24.07228947-23.98538589 24.07228947H682.15719414c-13.55695725 0-24.15919304-10.86294651-24.15919304-24.07228947V659.5622654c0-13.12243939 10.60223579-24.15919304 24.15919304-24.15919304h49.62193966v0.08690357z m0 0z" p-id="11822"></path></svg>