<?xml version="1.0" standalone="no"?><!DOCTYPE svg PUBLIC "-//W3C//DTD SVG 1.1//EN" "http://www.w3.org/Graphics/SVG/1.1/DTD/svg11.dtd"><svg t="1576494436119" class="icon" viewBox="0 0 1024 1024" version="1.1" xmlns="http://www.w3.org/2000/svg" p-id="10232" xmlns:xlink="http://www.w3.org/1999/xlink" width="200" height="200"><defs><style type="text/css"></style></defs><path d="M930.283795 511.570109c0-227.842149-184.853065-412.695214-412.695214-412.695214s-412.695214 184.853065-412.695214 412.695214 184.853065 412.695214 412.695214 412.695214 412.695214-183.993283 412.695214-412.695214z m-353.370277 190.011755c-61.0445 65.343409-138.424853 85.97817-147.02267 36.970613-6.878254-36.970613 29.232578-171.096558 36.970613-221.823678 2.579345-16.335852-18.055416 0-18.055416 0s-60.184719 42.129303-73.941226 18.055416c-2.579345-3.439127 12.896725-15.476071 18.055416-18.055416 0 0 124.668346-91.996641 165.937867-73.941226 40.40974 18.055416-14.616289 130.686818-18.055415 147.882452-4.298908 16.335852-30.092359 144.443325 55.026028 73.941226-0.859782 0 42.129303-28.372796-18.915197 36.970613m-30.952141-313.820319c-35.25105-1.719563-62.764064-32.671704-61.0445-67.922754 1.719563-35.25105 32.671704-62.764064 67.922754-61.0445 35.25105 1.719563 62.764064 32.671704 61.0445 67.922754-2.579345 35.25105-32.671704 62.764064-67.922754 61.0445" fill="#3998F7" p-id="10233"></path></svg>