<?xml version="1.0" standalone="no"?><!DOCTYPE svg PUBLIC "-//W3C//DTD SVG 1.1//EN" "http://www.w3.org/Graphics/SVG/1.1/DTD/svg11.dtd"><svg t="1576494453367" class="icon" viewBox="0 0 1024 1024" version="1.1" xmlns="http://www.w3.org/2000/svg" p-id="10677" xmlns:xlink="http://www.w3.org/1999/xlink" width="200" height="200"><defs><style type="text/css"></style></defs><path d="M866.536752 695.254924c-11.305019-6.282684-15.37447-20.536562-9.091787-31.841581 6.283954-11.30629 20.541644-15.380823 31.847934-9.098139l29.920566 16.631007c38.408859 21.340796 50.920865 68.394222 26.924698 104.272221a77.723594 77.723594 0 0 1-26.919616 24.616177L534.67511 1013.518273c-25.137087 13.975636-56.4387 13.975636-81.575788 0L68.555884 799.834609c-38.407589-21.340796-50.919595-68.394222-26.923428-104.272221a77.68929 77.68929 0 0 1 26.923428-24.606013l30.324589-16.854617c11.289773-6.158173 25.439469-2.059501 31.687849 9.181993 6.24838 11.246575 2.252618 25.425494-8.943136 31.757727l-30.318237 16.854617a30.887426 30.887426 0 0 0-10.740912 9.706715c-8.485752 12.69623-4.148223 29.018503 10.740912 37.292079l384.543438 213.693828c10.987391 6.104812 25.082455 6.104812 36.069846 0l384.54852-213.693828a30.840417 30.840417 0 0 0 10.739641-9.713067c8.487023-12.69496 4.149493-29.017232-10.739641-37.285727L866.536752 695.260006v-0.005082z m-2.471147-222.811024c-11.195755-6.337316-15.186434-20.516234-8.938054-31.757728 6.24838-11.246575 20.392994-15.345248 31.687849-9.187074l32.403147 18.005701c38.403777 21.340796 50.915783 68.394222 26.919616 104.27222a77.710889 77.710889 0 0 1-26.919616 24.616178L534.67511 792.076861c-25.137087 13.970554-56.4387 13.970554-81.575788 0L68.555884 578.383033c-38.407589-21.335714-50.919595-68.38914-26.923428-104.267139a77.780767 77.780767 0 0 1 26.923428-24.616177l32.512411-18.059063c11.30629-6.283954 25.563979-2.214503 31.847934 9.091786 6.282684 11.305019 2.213233 25.563979-9.093057 31.846664l-32.516223 18.070497a30.878533 30.878533 0 0 0-10.740912 9.707985c-8.485752 12.69496-4.148223 29.017232 10.740912 37.285726l384.543438 213.693828c10.987391 6.109894 25.082455 6.109894 36.069846 0l384.54852-213.693828a30.883615 30.883615 0 0 0 10.739641-9.706714c8.487023-12.69623 4.149493-29.018503-10.739641-37.286997l-32.403148-18.005701zM507.791068 50.440675a28.623373 28.623373 0 0 0-27.807704 0L94.041092 264.908245a28.624644 28.624644 0 0 0-14.720157 25.01893 28.611939 28.611939 0 0 0 14.720157 25.017659L479.983364 529.418756a28.629726 28.629726 0 0 0 27.807704 0l385.943542-214.473922a28.611939 28.611939 0 0 0 14.720157-25.017659 28.624644 28.624644 0 0 0-14.720157-25.01893L507.791068 50.440675z m408.698419 173.529121c36.428131 20.243074 49.539818 66.184801 29.300556 102.612931a75.459541 75.459541 0 0 1-29.300556 29.306909L530.540862 570.362288a75.464623 75.464623 0 0 1-73.307293 0L71.286215 355.889636c-36.428131-20.244344-49.5449-66.186071-29.301827-102.60912a75.459541 75.459541 0 0 1 29.296745-29.31072L457.238651 9.500955a75.464623 75.464623 0 0 1 73.307293 0l385.948625 214.468841h-0.005082z m0 0" p-id="10678"></path></svg>