<?xml version="1.0" standalone="no"?><!DOCTYPE svg PUBLIC "-//W3C//DTD SVG 1.1//EN" "http://www.w3.org/Graphics/SVG/1.1/DTD/svg11.dtd"><svg t="1576494496486" class="icon" viewBox="0 0 1024 1024" version="1.1" xmlns="http://www.w3.org/2000/svg" p-id="12272" xmlns:xlink="http://www.w3.org/1999/xlink" width="200" height="200"><defs><style type="text/css"></style></defs><path d="M756.811852 554.287407c23.703704-12.136296 40.011852-36.788148 40.011852-65.232593 0-40.391111-32.900741-73.291852-73.291852-73.291852s-73.291852 32.900741-73.291852 73.291852c0 28.444444 16.308148 53.096296 40.011852 65.232593-23.988148 8.343704-43.994074 25.41037-56.13037 47.407407-16.308148-24.462222-39.348148-44.088889-66.37037-56.13037 27.401481-19.626667 45.226667-51.674074 45.226667-87.893333 0-59.638519-48.45037-108.088889-108.088889-108.088889s-108.088889 48.45037-108.088889 108.088889c0 36.219259 17.825185 68.266667 45.226667 87.893333-20.005926 8.912593-37.925926 21.997037-52.432593 38.115556-11.662222-24.651852-32.900741-43.804444-58.88-52.811852 23.703704-12.136296 40.011852-36.788148 40.011852-65.232593 0-40.391111-32.900741-73.291852-73.291852-73.291852s-73.291852 32.900741-73.291852 73.291852c0 28.444444 16.308148 53.096296 40.011852 65.232593-37.925926 13.179259-65.896296 48.071111-68.456296 90.168889-0.663704 10.42963 7.395556 19.437037 17.825185 20.100741 10.42963 0.568889 19.437037-7.395556 20.100741-17.825185 1.991111-33.659259 30.056296-60.112593 63.81037-60.112593s61.819259 26.358519 63.81037 60.112593c0.094815 1.327407 0.284444 2.654815 0.663704 3.887407-6.637037 15.739259-10.808889 32.900741-11.851852 50.820741-0.663704 10.42963 7.395556 19.437037 17.825185 20.100741 10.42963 0.568889 19.437037-7.395556 20.100741-17.825185 3.697778-61.724444 54.992593-110.08 116.906667-110.08 61.914074 0 113.303704 48.355556 116.906667 110.08 0.568889 10.05037 8.912593 17.825185 18.868148 17.825185 0.379259 0 0.758519 0 1.137778 0 10.42963-0.663704 18.394074-9.576296 17.825185-20.100741-0.474074-7.585185-1.422222-14.980741-2.939259-22.281481 1.706667-2.654815 2.74963-5.688889 2.939259-9.102222 1.991111-33.659259 30.056296-60.112593 63.81037-60.112593s61.819259 26.358519 63.81037 60.112593c0.568889 10.05037 8.912593 17.825185 18.868148 17.825185 0.379259 0 0.758519 0 1.137778 0 10.42963-0.663704 18.394074-9.576296 17.825185-20.100741C822.708148 602.358519 794.737778 567.371852 756.811852 554.287407zM297.434074 501.001481c-19.531852 0-35.365926-15.834074-35.365926-35.365926s15.834074-35.365926 35.365926-35.365926 35.365926 15.834074 35.365926 35.365926S316.965926 501.001481 297.434074 501.001481zM504.888889 527.834074c-38.684444 0-70.162963-31.478519-70.162963-70.162963 0-38.684444 31.478519-70.162963 70.162963-70.162963s70.162963 31.478519 70.162963 70.162963C575.051852 496.355556 543.573333 527.834074 504.888889 527.834074zM723.531852 524.325926c-19.531852 0-35.365926-15.834074-35.365926-35.365926s15.834074-35.365926 35.365926-35.365926 35.365926 15.834074 35.365926 35.365926S743.063704 524.325926 723.531852 524.325926z" p-id="12273"></path><path d="M818.820741 163.555556 202.24 163.555556c-28.634074 0-51.958519 23.324444-51.958519 51.958519l0 616.580741c0 28.634074 23.324444 51.958519 51.958519 51.958519l616.580741 0c28.634074 0 51.958519-23.324444 51.958519-51.958519L870.779259 215.608889C870.779259 186.88 847.454815 163.555556 818.820741 163.555556zM832.853333 832.18963c0 7.774815-6.352593 14.032593-14.032593 14.032593L202.24 846.222222c-7.774815 0-14.032593-6.352593-14.032593-14.032593L188.207407 215.608889c0-7.774815 6.352593-14.032593 14.032593-14.032593l616.580741 0c7.774815 0 14.032593 6.352593 14.032593 14.032593L832.853333 832.18963z" p-id="12274"></path></svg>