<?xml version="1.0" standalone="no"?><!DOCTYPE svg PUBLIC "-//W3C//DTD SVG 1.1//EN" "http://www.w3.org/Graphics/SVG/1.1/DTD/svg11.dtd"><svg t="1576494502116" class="icon" viewBox="0 0 1024 1024" version="1.1" xmlns="http://www.w3.org/2000/svg" p-id="12501" xmlns:xlink="http://www.w3.org/1999/xlink" width="200" height="200"><defs><style type="text/css"></style></defs><path d="M657.92 358.4 560.64 358.4 560.64 256 657.92 256 657.92 358.4 657.92 358.4Z" p-id="12502"></path><path d="M657.92 563.2 560.64 563.2 560.64 460.8 657.92 460.8 657.92 563.2 657.92 563.2Z" p-id="12503"></path><path d="M657.92 768 560.64 768 560.64 665.6 657.92 665.6 657.92 768 657.92 768Z" p-id="12504"></path><path d="M463.36 358.4 366.08 358.4 366.08 256 463.36 256 463.36 358.4 463.36 358.4Z" p-id="12505"></path><path d="M463.36 563.2 366.08 563.2 366.08 460.8 463.36 460.8 463.36 563.2 463.36 563.2Z" p-id="12506"></path><path d="M463.36 768 366.08 768 366.08 665.6 463.36 665.6 463.36 768 463.36 768Z" p-id="12507"></path><path d="M714.24 102.4 714.24 102.4 714.24 0 755.2 40.96 268.8 40.96 309.76 0 309.76 102.4 309.76 143.36 268.8 143.36 122.88 143.36 163.84 102.4 163.84 1024 122.88 983.04 414.72 983.04 373.76 1024 373.76 921.6 373.76 880.64 414.72 880.64 609.28 880.64 650.24 880.64 650.24 921.6 650.24 1024 609.28 983.04 901.12 983.04 860.16 1024 860.16 102.4 901.12 143.36 755.2 143.36 714.24 143.36 714.24 102.4ZM755.2 102.4 755.2 102.4 901.12 102.4 901.12 1024 609.28 1024 609.28 921.6 414.72 921.6 414.72 1024 122.88 1024 122.88 102.4 268.8 102.4 268.8 0 755.2 0 755.2 102.4Z" p-id="12508"></path></svg>