<?xml version="1.0" standalone="no"?><!DOCTYPE svg PUBLIC "-//W3C//DTD SVG 1.1//EN" "http://www.w3.org/Graphics/SVG/1.1/DTD/svg11.dtd"><svg t="1576494428409" class="icon" viewBox="0 0 1099 1024" version="1.1" xmlns="http://www.w3.org/2000/svg" p-id="10010" xmlns:xlink="http://www.w3.org/1999/xlink" width="214.6484375" height="200"><defs><style type="text/css"></style></defs><path d="M1062.760296 1007.085037h-354.228148V415.971556c0-36.295111 28.823704-65.687704 64.398222-65.687704h193.232593c35.574519 0 64.398222 29.392593 64.398222 65.687704v525.425777h32.237037c17.749333 0 32.161185 14.715259 32.161185 32.843852s-14.411852 32.843852-32.199111 32.843852z m-214.66074-503.542518h42.894222c17.825185 0 32.237037 14.715259 32.237037 32.843851s-14.411852 32.843852-32.237037 32.843852h-42.932148a32.540444 32.540444 0 0 1-32.199111-32.843852c0-18.128593 14.411852-32.843852 32.237037-32.843851z m0 131.375407h42.894222c17.825185 0 32.237037 14.677333 32.237037 32.805926 0 18.166519-14.411852 32.843852-32.237037 32.843852h-42.932148a32.540444 32.540444 0 0 1-32.199111-32.843852c0-18.128593 14.411852-32.805926 32.237037-32.805926z m0 131.337481h42.894222c17.825185 0 32.237037 14.715259 32.237037 32.843852s-14.411852 32.843852-32.237037 32.843852h-42.932148a32.540444 32.540444 0 0 1-32.199111-32.843852c0-18.128593 14.411852-32.843852 32.237037-32.843852zM359.61363 1007.085037H32.237037a32.237037 32.237037 0 0 1-32.199111-32.237037v-1.251556c0-17.787259 14.411852-32.199111 32.237037-32.199111h32.161185V87.608889C64.398222 39.215407 102.855111 0 150.300444 0h472.329482c47.407407 0 85.864296 39.215407 85.864296 87.570963v919.514074H359.61363zM257.630815 240.82963c-23.703704 0-42.932148 19.607704-42.932148 43.766518 0 24.196741 19.228444 43.804444 42.932148 43.804445h257.668741c23.703704 0 42.932148-19.607704 42.932148-43.804445 0-24.158815-19.228444-43.766519-42.932148-43.766518H257.630815z m0 218.908444c-23.703704 0-42.932148 19.607704-42.932148 43.804445s19.228444 43.766519 42.932148 43.766518h257.668741c23.703704 0 42.932148-19.569778 42.932148-43.766518 0-24.196741-19.228444-43.804444-42.932148-43.804445H257.630815z m0 218.94637c-23.703704 0-42.932148 19.607704-42.932148 43.804445 0 24.158815 19.228444 43.766519 42.932148 43.766518h257.668741c23.703704 0 42.932148-19.607704 42.932148-43.766518 0-24.196741-19.228444-43.804444-42.932148-43.804445H257.630815z" fill="#FFC356" p-id="10011"></path></svg>