<?xml version="1.0" standalone="no"?><!DOCTYPE svg PUBLIC "-//W3C//DTD SVG 1.1//EN" "http://www.w3.org/Graphics/SVG/1.1/DTD/svg11.dtd"><svg t="1576494467863" class="icon" viewBox="0 0 1024 1024" version="1.1" xmlns="http://www.w3.org/2000/svg" p-id="11247" xmlns:xlink="http://www.w3.org/1999/xlink" width="200" height="200"><defs><style type="text/css"></style></defs><path d="M512 512m-512 0a512 512 0 1 0 1024 0 512 512 0 1 0-1024 0Z" fill="#42A5F5" p-id="11248"></path><path d="M505.2416 296.96l-204.8 181.1456a10.24 10.24 0 0 0 6.7584 17.7152h409.6a10.24 10.24 0 0 0 6.7584-17.92L518.7584 296.96a10.24 10.24 0 0 0-13.5168 0zM357.5808 495.8208v197.7344a10.24 10.24 0 0 0 10.24 10.24H460.8V595.6608a51.2 51.2 0 0 1 102.4 0v108.1344h92.9792a10.24 10.24 0 0 0 10.24-10.24V495.8208z" fill="#FFFFFF" p-id="11249"></path></svg>